<?xml version="1.0" standalone="no"?>
<!DOCTYPE svg PUBLIC "-//W3C//DTD SVG 1.1//EN" "http://www.w3.org/Graphics/SVG/1.1/DTD/svg11.dtd" >
<svg xmlns="http://www.w3.org/2000/svg">
<metadata>
This is a custom SVG webfont generated by Font Squirrel.
Copyright   : Generated in 2010 by FontLab Studio Copyright info pending
Designer    : Campivisivi
Foundry     : Campivisivi
</metadata>
<defs>
<font id="TitilliumText22L999wt" horiz-adv-x="1128" >
<font-face units-per-em="2048" ascent="1536" descent="-512" />
<missing-glyph horiz-adv-x="499" />
<glyph unicode=" "  horiz-adv-x="499" />
<glyph unicode="&#x09;" horiz-adv-x="499" />
<glyph unicode="&#xa0;" horiz-adv-x="499" />
<glyph unicode="!" d="M422 1491h315l-10 -938h-295zM426 0v354h307v-354h-307z" />
<glyph unicode="&#x22;" horiz-adv-x="755" d="M70 1470h274l-10 -532h-260zM428 1470h274l-10 -532h-260z" />
<glyph unicode="#" d="M2 352v238h205v225h-205v240h205v350h248v-350h221v350h246v-350h204v-240h-204v-225h204v-238h-204v-352h-246v352h-221v-352h-248v352h-205zM455 590h221v225h-221v-225z" />
<glyph unicode="$" d="M63 1063q0 209 139.5 320.5t385.5 111.5h10l29 209h159l-28 -221l276 -45l-22 -262q-156 16 -289 28l-45 -348q225 -72 306 -162t81 -272q0 -215 -135 -328.5t-363 -118.5l-32 -251q-160 6 -160 14l33 248q-68 6 -143 18t-120 21l-43 10l29 262q168 -25 309 -35l45 352 q-231 70 -326.5 169.5t-95.5 279.5zM356 1067q0 -55 35 -88t133 -70l39 301q-207 -8 -207 -143zM602 262q90 6 131 42t41 112q0 51 -29.5 83.5t-103.5 65.5z" />
<glyph unicode="%" d="M2 1184.5q0 144.5 66.5 226.5t200.5 82t200 -82t66 -226.5t-66 -228.5t-200 -84t-200.5 84t-66.5 228.5zM51 125l901 1356l138 -101l-900 -1355zM211 1185q0 -79 11 -110t46 -31t46.5 31t11.5 110t-11.5 108.5t-46.5 29.5t-46 -29.5t-11 -108.5zM594 315.5 q0 145.5 66.5 227.5t200.5 82t199.5 -82t65.5 -227.5t-65.5 -228.5t-199.5 -83t-200.5 83t-66.5 228.5zM803 314.5q0 -78.5 12 -109.5t46 -31t45.5 31t11.5 109.5t-11.5 109.5t-45.5 31t-46 -31t-12 -109.5z" />
<glyph unicode="&#x26;" horiz-adv-x="1490" d="M68 422q0 268 297 436q-63 88 -86 148.5t-23 164.5q0 164 116.5 257.5t315.5 93.5q211 0 322.5 -95.5t111.5 -277.5q0 -139 -62.5 -233.5t-217.5 -208.5l166 -170q43 180 51 247l276 -6q-33 -223 -106 -418l239 -221l-172 -192l-219 190q-129 -100 -234.5 -143 t-264.5 -43q-233 0 -371.5 124t-138.5 347zM362 424q0 -92 63.5 -148.5t160.5 -56.5q84 0 143 20.5t133 73.5l-325 346q-74 -43 -124.5 -107.5t-50.5 -127.5zM543 1128q0 -111 94 -210l31 -31q90 68 128 115t38 114q0 137 -145.5 137t-145.5 -125z" />
<glyph unicode="'" horiz-adv-x="212" d="M-43 1470h274l-10 -532h-260z" />
<glyph unicode="(" horiz-adv-x="552" d="M10 641q0 190 52.5 429t103.5 382l51 145h311q-25 -61 -57.5 -164.5t-88.5 -358.5t-56 -433q0 -356 186 -862l16 -45h-311q-23 53 -57.5 144t-92 332t-57.5 431z" />
<glyph unicode=")" horiz-adv-x="552" d="M10 1597h312l57 -153q35 -96 92 -344t57 -437.5t-51 -422t-102 -367.5l-53 -139h-312q25 59 57.5 158.5t89 346t56.5 423.5q0 180 -51 413.5t-103 376.5z" />
<glyph unicode="*" d="M223 975l223 166l-217 155l99 136l211 -148l88 250l159 -53l-81 -260h262v-158h-262l81 -256l-155 -47l-88 258l-219 -168z" />
<glyph unicode="+" d="M35 489v261h401v401h260v-401h408v-261h-408v-403h-260v403h-401z" />
<glyph unicode="," horiz-adv-x="360" d="M-12 -262l110 553h308l-132 -553h-286z" />
<glyph unicode="-" horiz-adv-x="935" d="M150 459v280h638v-280h-638z" />
<glyph unicode="." horiz-adv-x="526" d="M96 0v354h307v-354h-307z" />
<glyph unicode="/" d="M119 43l604 1491l272 -94l-604 -1491z" />
<glyph unicode="0" d="M14 694q0 387 138.5 562.5t410 175.5t409.5 -175.5t138 -562.5q0 -385 -137 -552t-410.5 -167t-411 167t-137.5 552zM330 694q0 -254 52 -346t182 -92t180.5 91t50.5 347q0 258 -51.5 357.5t-178.5 99.5q-131 0 -183 -100.5t-52 -356.5z" />
<glyph unicode="1" d="M59 1100l461 305h273v-1405h-295v1063l-301 -199z" />
<glyph unicode="2" d="M109 0v268l292 289l126 130q38 40 86.5 99.5t64.5 105.5t16 95q0 80 -53 116t-176 36q-63 0 -147.5 -7.5t-135.5 -15.5l-47 -8l-18 268q223 55 422 56q238 0 348 -101.5t110 -302.5q0 -158 -63.5 -271.5t-233.5 -279.5l-200 -196h520v-281h-911z" />
<glyph unicode="3" d="M98 25l27 264q240 -29 401 -29q219 0 219 158q0 150 -204 149h-283v267h283q68 0 124 54t56 109q0 150 -211 150q-76 0 -167 -7t-146 -16l-56 -6l-26 258q246 55 415 56q270 0 381 -93.5t111 -294.5q0 -109 -40 -178t-124 -125q100 -53 145.5 -119.5t45.5 -197.5 q0 -227 -115 -338t-365 -111q-94 0 -210.5 12.5t-188.5 24.5z" />
<glyph unicode="4" d="M47 205v237l348 963h326l-342 -920h270v424h295v-424h129v-280h-129v-225h-295v225h-602z" />
<glyph unicode="5" d="M74 45l32 262q279 -51 457 -51q84 0 136.5 50t52.5 134q0 90 -51.5 136.5t-145.5 46.5l-223 -33l-226 49l48 768h858v-281h-594l-35 -268q137 39 205 39q233 0 350 -106.5t117 -331.5q0 -231 -126 -357.5t-356 -126.5q-218 0 -499 70z" />
<glyph unicode="6" d="M47 696q0 399 148.5 567.5t437.5 168.5l422 -48l-27 -268q-217 33 -395 33q-283 0 -283 -301l43 12q45 12 112.5 26.5t112.5 14.5q240 0 362 -110.5t122 -346.5q0 -231 -136.5 -350t-379.5 -119q-539 0 -539 721zM348 594q0 -154 56.5 -248t181.5 -94q213 0 213 192 q0 188 -207 189q-51 -2 -112.5 -12.5t-96.5 -18.5z" />
<glyph unicode="7" d="M104 1124v283h900v-334l-508 -1112l-273 78l477 1034v51h-596z" />
<glyph unicode="8" d="M39 358q0 135 41 211t135 156q-90 72 -122 141.5t-32 182.5q0 180 138.5 281.5t371 101.5t374.5 -102.5t142 -282.5q0 -125 -29.5 -186.5t-121.5 -135.5q92 -80 133 -150.5t41 -193.5q0 -209 -149.5 -307.5t-389.5 -98.5q-532 0 -532 383zM354 426q0 -170 217 -170 q109 0 166.5 44t57.5 126q0 106 -125 156h-189q-127 -50 -127 -156zM377 1001q0 -90 104 -161h189q104 72 104 161q0 150 -198.5 150t-198.5 -150z" />
<glyph unicode="9" d="M33 961q0 227 139 349t375 122q276 0 407 -178.5t131 -542.5q0 -399 -148.5 -567.5t-436.5 -168.5l-422 45l26 265q217 -31 396 -31q141 0 212.5 82t71.5 217l-45 -12q-45 -10 -111.5 -23.5t-111.5 -13.5q-233 0 -358 116t-125 341zM334 961q0 -186 207 -187l245 41 q0 152 -61 246t-178 94q-100 0 -156.5 -49t-56.5 -145z" />
<glyph unicode=":" horiz-adv-x="489" d="M74 0v354h307v-354h-307zM74 616v353h307v-353h-307z" />
<glyph unicode=";" horiz-adv-x="512" d="M8 -242l133 576h305l-172 -576h-266zM119 616v353h307v-353h-307z" />
<glyph unicode="&#x3c;" d="M135 504v299l737 387v-297l-456 -236l456 -239v-299z" />
<glyph unicode="=" d="M45 248v260h1012v-260h-1012zM45 709v260h1012v-260h-1012z" />
<glyph unicode="&#x3e;" d="M135 119v299l457 239l-457 236v297l737 -387v-299z" />
<glyph unicode="?" horiz-adv-x="821" d="M10 1460q250 61 365 62q256 0 367.5 -95.5t111.5 -326.5q0 -109 -38 -194t-95 -134t-112.5 -88t-93.5 -77t-38 -79v-82h-307v89q0 82 39 143t92 101l108 78q54 38 92 89t38 115q0 88 -31 123q-32 35 -146 35q-49 0 -127.5 -9.5t-134.5 -21.5l-55 -8zM170 0v354h307v-354 h-307z" />
<glyph unicode="@" horiz-adv-x="2097" d="M86 555q0 494 266 745.5t721 251.5q467 0 703.5 -231t236.5 -672v-35q0 -340 -102.5 -487t-308.5 -147q-184 0 -277 90q-184 -88 -321 -88q-201 0 -300.5 123.5t-99.5 410.5q0 137 18.5 235.5t62.5 176.5t126 116.5t201 38.5l198 -47v29h285v-426q0 -170 10.5 -253 t32 -106.5t64.5 -23.5q68 0 95 72.5t27 285.5v37q0 338 -153.5 480.5t-497.5 142.5t-522 -183.5t-178 -535.5q0 -389 158.5 -555t541.5 -166l305 19l11 -277q-213 -20 -316 -20q-244 0 -421 48t-308 162.5t-194.5 310t-63.5 478.5zM895 516q0 -141 30.5 -197.5t100.5 -56.5 q86 0 199 33q-14 88 -15 217v281q-94 20 -135 20q-113 0 -146.5 -58.5t-33.5 -238.5z" />
<glyph unicode="A" horiz-adv-x="1288" d="M43 0l326 1470h557l319 -1470h-293l-65 248h-496l-55 -248h-293zM455 530h376l-139 670h-96z" />
<glyph unicode="B" horiz-adv-x="1288" d="M150 0v1470h563q211 0 331.5 -91t120.5 -281q0 -141 -35.5 -216t-123.5 -130q100 -45 143 -121t43 -215q0 -211 -123 -313.5t-346 -102.5h-573zM438 270h269q94 0 139 40t45 128q0 164 -184 164h-269v-332zM438 868h262q164 0 164 176q0 156 -166 156h-260v-332z" />
<glyph unicode="C" horiz-adv-x="1136" d="M86 735q0 418 124 589t429 171q82 0 186.5 -14.5t171.5 -32.5l66 -14l-8 -258q-258 31 -373 30q-117 0 -178.5 -38t-89 -139t-27.5 -294q0 -279 58.5 -375t244.5 -96q47 0 138.5 8.5t160.5 16.5l66 8l6 -264q-254 -57 -422 -58q-322 0 -437.5 177t-115.5 583z" />
<glyph unicode="D" horiz-adv-x="1333" d="M149 0v1470h484q186 0 308 -40.5t188.5 -133t92 -217.5t25.5 -317q0 -201 -22.5 -331t-88 -233.5t-189.5 -150.5t-314 -47h-484zM438 279h195q82 0 141.5 22.5t92 58t51 102t23.5 132t5 168.5q0 84 -3 137t-14.5 106.5t-33 84t-56 55t-86 35t-120.5 10.5h-195v-911z" />
<glyph unicode="E" horiz-adv-x="1177" d="M150 0v1470h931v-282h-643v-328h516v-274h-516v-305h643v-281h-931z" />
<glyph unicode="F" horiz-adv-x="1144" d="M150 0v1470h931v-282h-643v-424h516v-279h-516v-485h-288z" />
<glyph unicode="G" horiz-adv-x="1265" d="M86 739q0 401 132 578.5t450 177.5q98 0 224 -14.5t204 -32.5l75 -14l-8 -254q-256 29 -450 28q-190 0 -258 -94t-68 -375q0 -283 62.5 -381t255.5 -98l178 8v250h-133v262h421v-757q-305 -47 -493 -48q-330 0 -461 186.5t-131 577.5z" />
<glyph unicode="H" horiz-adv-x="1423" d="M150 0v1470h292v-579h539v579h295v-1470h-295v606h-539v-606h-292z" />
<glyph unicode="I" horiz-adv-x="591" d="M150 0v1470h292v-1470h-292z" />
<glyph unicode="J" horiz-adv-x="667" d="M63 123q162 0 162 137v1210h293q0 -227 1 -612t1 -613.5t-103.5 -311.5t-353.5 -83v273z" />
<glyph unicode="K" horiz-adv-x="1261" d="M150 0v1470h292v-630l193 20l237 610h340l-315 -731l324 -739h-338l-244 578l-197 -23v-555h-292z" />
<glyph unicode="L" horiz-adv-x="1036" d="M150 0v1470h292v-1187h531v-283h-823z" />
<glyph unicode="M" horiz-adv-x="1804" d="M150 0v1470h468l287 -1056l287 1056h465v-1470h-293v1100h-33l-278 -1037h-295l-283 1037h-33v-1100h-292z" />
<glyph unicode="N" horiz-adv-x="1492" d="M150 0v1470h460l408 -1099h33v1099h292v-1470h-446l-422 1100h-33v-1100h-292z" />
<glyph unicode="O" horiz-adv-x="1370" d="M86 725q0 389 136 579.5t464 190.5t464 -190.5t136 -579.5q0 -387 -135 -568.5t-465 -181.5t-465 181.5t-135 568.5zM387 725q0 -250 63.5 -358.5t235.5 -108.5t234.5 108.5t62.5 358.5q0 252 -63.5 369.5t-233.5 117.5t-234.5 -117.5t-64.5 -369.5z" />
<glyph unicode="P" horiz-adv-x="1259" d="M150 0v1470h532q514 0 514 -514q0 -258 -130 -397t-384 -139h-240v-420h-292zM442 702h238q219 0 219 254q0 229 -219 230h-238v-484z" />
<glyph unicode="Q" horiz-adv-x="1370" d="M86 725q0 389 136 579.5t464 190.5t464 -190.5t136 -579.5q0 -489 -219 -651l172 -281l-268 -125l-191 312q-59 -4 -94 -5q-330 0 -465 181.5t-135 568.5zM387 725q0 -250 63.5 -358.5t235.5 -108.5t234.5 108.5t62.5 358.5q0 252 -63.5 369.5t-233.5 117.5 t-234.5 -117.5t-64.5 -369.5z" />
<glyph unicode="R" horiz-adv-x="1306" d="M150 0v1470h561q264 0 388 -115.5t124 -373.5q0 -285 -213 -418l207 -563h-322l-170 475h-283v-475h-292zM442 754h273q207 0 207 223q0 213 -211 213h-269v-436z" />
<glyph unicode="S" d="M63 1063q0 209 139.5 320.5t385.5 111.5q72 0 184.5 -14.5t185.5 -28.5l76 -14l-22 -262q-301 35 -424 34q-231 0 -232 -143q0 -68 57.5 -106.5t241.5 -96.5q240 -76 325 -166t85 -276q0 -217 -140.5 -332t-375.5 -115q-162 0 -447 60l29 262q264 -37 416 -37 q121 0 174 36t53 120q0 68 -53 107.5t-207 82.5q-250 74 -350.5 172.5t-100.5 284.5z" />
<glyph unicode="T" horiz-adv-x="1021" d="M-20 1186v284h1064v-284h-385v-1186h-292v1186h-387z" />
<glyph unicode="U" horiz-adv-x="1357" d="M127 489v981h295v-981q0 -121 66.5 -171t191.5 -50q258 0 258 221v981h293v-981q0 -266 -137.5 -386.5t-414 -120.5t-414.5 120.5t-138 386.5z" />
<glyph unicode="V" horiz-adv-x="1304" d="M43 1470h309l250 -1189h96l256 1189h310l-342 -1470h-543z" />
<glyph unicode="W" horiz-adv-x="2002" d="M51 1470h309l222 -1167h32l222 1167h333l222 -1167h32l222 1167h309l-328 -1470h-438l-187 1036l-186 -1036h-436z" />
<glyph unicode="X" horiz-adv-x="1236" d="M33 0l395 729l-395 741h325l263 -514l260 514h325l-391 -741l391 -729h-325l-260 504l-263 -504h-325z" />
<glyph unicode="Y" horiz-adv-x="1214" d="M20 1470h328l260 -514l260 514h326l-436 -843v-627h-293v629z" />
<glyph unicode="Z" horiz-adv-x="1212" d="M127 0v283l582 872v31h-582v284h958v-284l-581 -871v-32h581v-283h-958z" />
<glyph unicode="[" horiz-adv-x="638" d="M59 1595h539v-280h-244v-1297h244v-280h-537z" />
<glyph unicode="\" horiz-adv-x="1165" d="M72 1415l319 141l676 -1499l-317 -133z" />
<glyph unicode="]" horiz-adv-x="638" d="M59 18h246v1297h-246v280h539l-2 -1857h-537v280z" />
<glyph unicode="^" d="M31 668l385 737h297l387 -737h-299l-232 456l-241 -456h-297z" />
<glyph unicode="_" horiz-adv-x="1105" d="M57 33h912v-260h-912v260z" />
<glyph unicode="`" horiz-adv-x="569" d="M-39 1397l88 254l547 -197l-78 -223z" />
<glyph unicode="a" horiz-adv-x="1124" d="M86 324q0 170 90 242.5t281 84.5l229 17v53q0 41 -29.5 67.5t-76.5 26.5l-414 -16l-8 243q283 45 438 45q188 0 281.5 -83.5t93.5 -280.5v-395q0 -61 13 -82t56 -29l-10 -242q-127 0 -184.5 15.5t-116.5 56.5q-180 -72 -326 -72q-156 0 -236.5 92.5t-80.5 256.5zM373 332 q0 -113 88 -113q37 0 93 7t93 18l39 8v197l-194 -9q-119 -6 -119 -108z" />
<glyph unicode="b" horiz-adv-x="1161" d="M143 4v1487h285v-451q137 47 229 47q225 0 327.5 -122.5t102.5 -421.5q0 -332 -118.5 -450t-411.5 -118q-43 0 -147 8l-187 13zM428 244q98 -12 129 -13q143 0 192.5 68t49.5 244q0 154 -46 217t-132 63l-193 -16v-563z" />
<glyph unicode="c" horiz-adv-x="927" d="M74 543q0 285 106.5 414.5t343.5 129.5q55 0 140.5 -11t142.5 -21l57 -11l-8 -245q-168 16 -250 16q-147 0 -194 -57.5t-47 -214.5q0 -174 48 -234.5t195 -60.5l248 16l8 -246q-227 -43 -346 -43q-238 0 -341 133.5t-103 434.5z" />
<glyph unicode="d" horiz-adv-x="1173" d="M74 543q0 285 110.5 414.5t331.5 129.5q33 0 90.5 -7t98.5 -13l40 -6v430h285v-1491h-285v43q-147 -66 -256 -66q-231 0 -323 136.5t-92 429.5zM365 543q0 -164 36.5 -231.5t137.5 -69.5q84 2 206 28v541q-117 20 -208 20q-172 1 -172 -288z" />
<glyph unicode="e" horiz-adv-x="1079" d="M74 518q0 569 471 569q465 0 465 -479l-21 -198h-627q2 -92 51.5 -133t164.5 -41l393 20l4 -221q-244 -59 -443 -60q-242 0 -350 127t-108 416zM360 629h369q0 113 -42 160t-142.5 47t-141.5 -49t-43 -158z" />
<glyph unicode="f" horiz-adv-x="729" d="M37 805v258h115v49q0 227 67.5 313t243.5 86q31 0 92 -6t104 -14l46 -6l-5 -232q-94 4 -161 4q-59 0 -81 -33.5t-22 -113.5v-47h258v-258h-258v-805h-284v805h-115z" />
<glyph unicode="g" horiz-adv-x="1144" d="M74 -195q0 139 151 256q-76 53 -75 160q0 25 21.5 67t41.5 74l18 29q-143 104 -143 318q0 195 122 285.5t325 90.5q43 0 96 -6t84 -14l35 -6l327 6v-227h-133q35 -63 35 -129q0 -213 -108.5 -294t-340.5 -81q-49 0 -88 8q-20 -55 -20 -82q0 -43 37 -56.5t170 -13.5 q268 0 366.5 -70.5t98.5 -250.5q0 -195 -141.5 -288t-364.5 -93q-256 0 -385 67.5t-129 249.5zM356 -164q0 -92 234 -92q215 0 215 106q0 57 -38 74t-163 19l-190 14q-58 -58 -58 -121zM373 708.5q0 -71.5 35.5 -103.5t121.5 -32q90 0 129 31t39 105q0 72 -38.5 103.5 t-127.5 31.5q-86 0 -122.5 -32t-36.5 -103.5z" />
<glyph unicode="h" horiz-adv-x="1193" d="M143 0v1491h285v-459q164 55 264 55q213 0 294 -128t81 -402v-557h-285v557q0 135 -29.5 199.5t-119.5 64.5l-205 -24v-797h-285z" />
<glyph unicode="i" horiz-adv-x="569" d="M143 0v1063h285v-1063h-285zM143 1202v291h285v-291h-285z" />
<glyph unicode="j" horiz-adv-x="575" d="M-72 -291q141 86 181.5 135.5t40.5 167.5v1051h284v-1053q0 -217 -75.5 -320.5t-303.5 -217.5zM150 1221v290h284v-290h-284z" />
<glyph unicode="k" horiz-adv-x="1101" d="M143 0v1491h285v-834l109 23l211 383h319l-274 -502l288 -561h-321l-217 401l-115 -22v-379h-285z" />
<glyph unicode="l" horiz-adv-x="569" d="M143 0v1491h285v-1491h-285z" />
<glyph unicode="m" horiz-adv-x="1802" d="M143 0v1063h283v-51q70 35 145 57q66 18 107 18q172 0 260 -86q233 86 362 86q211 0 293 -123.5t82 -408.5v-555h-284v438q0 246 -21 303q-29 80 -129 80l-197 -39q8 -147 9 -231v-551h-287v547q0 156 -27.5 215t-120.5 59q-33 0 -79.5 -8t-77.5 -16l-33 -11v-786h-285z " />
<glyph unicode="n" horiz-adv-x="1193" d="M143 0v1063h285v-47q164 72 264 71q213 0 294 -128t81 -404v-555h-285v555q0 137 -29.5 201.5t-119.5 64.5q-33 0 -84 -8t-84 -16l-37 -11v-786h-285z" />
<glyph unicode="o" d="M74 532.5q0 264.5 113.5 409.5t377.5 145t377 -145t113 -409.5t-113 -411t-377 -146.5t-377.5 146.5t-113.5 411zM365 532.5q0 -155.5 43 -228.5t156.5 -73t156.5 73t43 228.5t-43 227t-156.5 71.5t-156.5 -71.5t-43 -227z" />
<glyph unicode="p" horiz-adv-x="1161" d="M143 1063h285v-49q137 74 242 73q217 0 317 -123.5t100 -422.5q0 -326 -112.5 -446t-370.5 -120l-176 17v-438h-285v1509zM428 244q96 -12 156 -13q125 0 170 69t45 241q0 287 -185 286l-186 -41v-542z" />
<glyph unicode="q" horiz-adv-x="1140" d="M74 520q0 567 487 567q55 0 165 -6t189 -12l84 -6v-1512h-286v449q-55 -25 -152 -25q-487 0 -487 545zM360 520q0 -289 201 -289q31 0 70 10.5t59 18.5l23 8v559q-98 4 -152 4q-201 0 -201 -311z" />
<glyph unicode="r" horiz-adv-x="765" d="M143 0v1063h285v-100q127 94 297 124v-305q-84 -18 -158.5 -39.5t-105.5 -37.5l-33 -15v-690h-285z" />
<glyph unicode="s" horiz-adv-x="1056" d="M100 741q0 174 116 260t298 86q68 0 171 -13t171 -25l70 -15l-4 -237q-264 35 -387 34q-90 0 -120 -19t-30 -64q0 -37 39 -52.5t162 -36.5q213 -33 292.5 -105.5t79.5 -234.5q0 -344 -430 -344l-409 50l8 241q264 -35 373 -35q98 0 136 19.5t38 62.5q0 37 -33 53.5 t-141 36.5q-221 37 -310.5 105.5t-89.5 232.5z" />
<glyph unicode="t" horiz-adv-x="745" d="M33 805v258h125v299h284v-299h263v-258h-263v-402q0 -66 3.5 -92t23.5 -44.5t63 -18.5l162 4l13 -246q-141 -31 -218 -31q-190 0 -260.5 86t-70.5 318v426h-125z" />
<glyph unicode="u" horiz-adv-x="1193" d="M127 508v555h287v-555q0 -164 24.5 -220.5t124.5 -56.5q31 0 82 10.5l88 18.5l33 8v795h287v-1063h-287v45q-166 -70 -264 -70q-223 0 -299 121t-76 412z" />
<glyph unicode="v" horiz-adv-x="1030" d="M16 1063h297l174 -827h58l180 827h289l-256 -1063h-486z" />
<glyph unicode="w" horiz-adv-x="1597" d="M25 1063h282l129 -805h51l162 786h299l162 -786h51l129 805h283l-199 -1063h-459l-118 651l-121 -651h-453z" />
<glyph unicode="x" horiz-adv-x="993" d="M20 0l291 530l-291 533h306l170 -328l174 328h303l-291 -533l291 -530h-303l-174 326l-170 -326h-306z" />
<glyph unicode="y" horiz-adv-x="1032" d="M16 1063h283l193 -784h49l194 784h281l-373 -1507h-281l109 444h-192z" />
<glyph unicode="z" horiz-adv-x="1015" d="M113 0v258l448 549h-448v258h790v-258l-446 -549h446v-258h-790z" />
<glyph unicode="{" horiz-adv-x="720" d="M51 547v239q117 29 159 72t42 119q0 29 -8 129t-8 141q0 201 107.5 283t352.5 90v-281q-98 -8 -124.5 -28.5t-26.5 -83.5q0 -37 8 -140.5t8 -132.5q0 -125 -47 -186t-166 -98q117 -39 165 -107.5t48 -195.5q0 -31 -8 -122t-8 -128q0 -66 27.5 -89.5t123.5 -31.5v-281 q-240 8 -350 93.5t-110 273.5q0 43 8 138t8 118q0 80 -43 129t-158 80z" />
<glyph unicode="|" d="M408 -489v2086h292v-2086h-292z" />
<glyph unicode="}" horiz-adv-x="720" d="M51 -4q96 8 124 31.5t28 89.5q0 37 -7.5 128t-7.5 122q0 127 47.5 195.5t165.5 107.5q-121 37 -167 98t-46 186q0 29 7.5 132.5t7.5 140.5q0 63 -26.5 83.5t-125.5 28.5v281q246 -8 353.5 -90t107.5 -283q0 -41 -8 -141t-8 -129q0 -76 42 -119t158 -72v-239 q-115 -31 -157.5 -80t-42.5 -129q0 -23 8 -118t8 -138q0 -188 -110.5 -273t-350.5 -94v281z" />
<glyph unicode="~" d="M123 725l37 32q23 19 94.5 50t138.5 31q55 0 191.5 -47.5t185.5 -47.5q37 0 91 20.5t91 41.5l37 22l17 -266q-10 -14 -32 -32.5t-87.5 -50.5t-128.5 -32q-59 0 -201.5 47.5t-179.5 47.5q-102 0 -232 -84z" />
<glyph unicode="&#xa1;" d="M422 -428l10 938h295l10 -938h-315zM426 709v354h307v-354h-307z" />
<glyph unicode="&#xa2;" horiz-adv-x="929" d="M25 532q0 436 389 469v216h237v-226l164 -22l-8 -244q-168 6 -250 6q-137 0 -189.5 -41t-52.5 -157.5t52.5 -158.5t193.5 -42l246 8l8 -244q-78 -12 -164 -24v-232h-237v221q-389 29 -389 471z" />
<glyph unicode="&#xa3;" d="M137 0v246h158v434h-137v248h137v139q0 381 383 381l287 -31v-243q-166 18 -279 18q-111 0 -111 -137v-127h326v-248h-326v-434h265l147 33l43 -240l-172 -37z" />
<glyph unicode="&#xa4;" d="M33 201l155 155q-44 89 -44 179.5t44 181.5l-155 155l194 197l156 -156q90 43 180.5 43t181.5 -43l156 156l197 -197l-156 -155q42 -91 42 -181.5t-42 -179.5l156 -155l-197 -197l-156 156q-91 -44 -181.5 -44t-180.5 44l-156 -156zM406 536.5q0 -65.5 46 -112.5 t112.5 -47t113.5 47t47 112.5t-47 112.5t-113.5 47t-112.5 -47t-46 -112.5z" />
<glyph unicode="&#xa5;" horiz-adv-x="1148" d="M-10 1405h325l263 -449l260 449h325l-305 -547h191v-237h-322v-76h322v-238h-322v-307h-295v307h-330v238h330v76h-330v237h197z" />
<glyph unicode="&#xa6;" d="M408 406h292v-895h-292v895zM408 698v899h292v-899h-292z" />
<glyph unicode="&#xa7;" d="M106 455q0 74 43.5 157.5t94.5 126.5q-94 68 -94 230q0 391 460 391q70 0 163 -13.5t153 -25.5l61 -12l-14 -232q-240 35 -342 35q-123 0 -164 -29.5t-41 -109.5q0 -47 57.5 -71.5t231.5 -65.5q193 -47 259 -109.5t66 -212.5q0 -145 -106 -297q41 -41 60.5 -87t19.5 -144 q0 -207 -109.5 -299.5t-353.5 -92.5q-66 0 -165 13.5t-165 25.5l-65 11l26 231q231 -33 348 -33q111 0 161 29t50 92q0 57 -53 83t-250 75q-186 47 -259 114.5t-73 219.5zM393 508q0 -63 24.5 -87t104.5 -44q88 -25 189 -60q39 49 39 156q0 53 -34 80t-138 53l-70 18l-78 19 q-37 -55 -37 -135z" />
<glyph unicode="&#xa8;" horiz-adv-x="569" d="M-63 1290v283h272v-283h-272zM395 1290v283h275v-283h-275z" />
<glyph unicode="&#xa9;" d="M18 922q0 244 156 407.5t391 163.5q240 0 392.5 -167t152.5 -402q0 -240 -152.5 -403t-396.5 -163q-229 0 -386 164t-157 400zM154 924.5q0 -179.5 116.5 -305t292.5 -125.5q178 0 296 124.5t118 305t-119 308.5t-294 128t-292.5 -128t-117.5 -307.5zM289 936 q0 164 67.5 240.5t214.5 76.5l162 -12l-2 -225q-57 12 -160 12q-31 0 -46 -29.5t-15 -62.5q0 -43 16.5 -80t44.5 -37l160 12v-221q-55 -16 -160 -16q-150 0 -216 79t-66 263z" />
<glyph unicode="&#xaa;" horiz-adv-x="1101" d="M295 993q0 147 160 162l217 14v50q0 68 -25.5 92t-85.5 24l-223 -14l-4 65q147 16 227 17q90 0 133 -43t43 -143v-287q12 -41 78 -47l-4 -62q-68 2 -115 47q-133 -47 -254 -47q-66 0 -106.5 47t-40.5 125zM365 989q0 -98 84 -98q43 0 98 8t90 16l35 11v182l-207 -12 q-53 -6 -76.5 -30t-23.5 -77z" />
<glyph unicode="&#xab;" horiz-adv-x="1425" d="M193 414v204l475 349v-287l-234 -160l234 -184v-287zM795 414v204l475 349v-287l-234 -160l234 -184v-287z" />
<glyph unicode="&#xac;" d="M102 508v276h918v-583h-277v307h-641z" />
<glyph unicode="&#xad;" horiz-adv-x="935" d="M150 459v280h638v-280h-638z" />
<glyph unicode="&#xae;" d="M-20 924q0 256 157.5 431t428 175t434 -174t163.5 -432q0 -250 -164.5 -428.5t-433.5 -178.5q-270 0 -427.5 175.5t-157.5 431.5zM111 924q0 -193 133 -335.5t320.5 -142.5t321.5 141.5t134 336.5q0 201 -134 339t-321 138q-195 0 -324.5 -137t-129.5 -340zM299 588v672 h268q264 0 264 -218q0 -84 -17 -129t-64 -82l96 -243h-219l-70 215h-55v-215h-203zM500 954h61q72 0 72 72q0 80 -76 80h-57v-152z" />
<glyph unicode="&#xaf;" horiz-adv-x="569" d="M-53 1325v248h696v-248h-696z" />
<glyph unicode="&#xb0;" d="M201 1201q0 142 88 231.5t230.5 89.5t231.5 -89.5t89 -231.5t-89 -229t-231.5 -87t-230.5 87t-88 229zM360 1201q0 -73 43 -117t116 -44t119 44t46 117t-46 119t-119 46t-116 -46t-43 -119z" />
<glyph unicode="&#xb1;" d="M35 63v261h1069v-261h-1069zM35 639v260h401v252h260v-252h408v-260h-408v-233h-260v233h-401z" />
<glyph unicode="&#xb2;" horiz-adv-x="563" d="M31 1018v192l153 125q98 80 99 121q0 33 -78 33l-162 -12l-8 211q156 18 250 18q131 0 184 -49t53 -164q0 -70 -27.5 -118t-91.5 -95l-81 -59h200v-203h-491z" />
<glyph unicode="&#xb3;" horiz-adv-x="563" d="M43 1012l12 198q129 -14 201 -14q61 0 61 35q0 31 -55 31h-141v180h137q43 0 43 30.5t-57 30.5l-181 -10l-12 195q145 18 230 18q258 0 258 -190q0 -113 -62 -148q74 -33 74 -156q0 -109 -65.5 -163t-184.5 -54z" />
<glyph unicode="&#xb4;" horiz-adv-x="569" d="M-2 1456l547 197l94 -271l-555 -165z" />
<glyph unicode="&#xb5;" d="M117 1065h286v-614q2 -123 30 -171.5t118 -48.5q33 0 84 10.5t86 18.5l35 8v795h286v-1063h-286v45q-166 -70 -264 -70q-49 0 -89 7v-451h-286v1534z" />
<glyph unicode="&#x3bc;" d="M117 1065h286v-614q2 -123 30 -171.5t118 -48.5q33 0 84 10.5t86 18.5l35 8v795h286v-1063h-286v45q-166 -70 -264 -70q-49 0 -89 7v-451h-286v1534z" />
<glyph unicode="&#xb6;" d="M16 1070q0 185 111 303t291 118h704v-219h-75v-1272h-244v1272h-131v-1272h-244v651h-14q-180 0 -289 117t-109 302z" />
<glyph unicode="&#xb7;" horiz-adv-x="526" d="M96 440v355h307v-355h-307z" />
<glyph unicode="&#xb8;" horiz-adv-x="1773" d="M776 -489l8 165q66 -2 103 -2q80 0 80 56q0 47 -80 47h-51v225h112v-80q135 -4 198.5 -42t63.5 -150q0 -121 -62.5 -182.5t-174.5 -61.5q-39 0 -89 6t-79 12z" />
<glyph unicode="&#xb9;" horiz-adv-x="563" d="M35 1524l225 159h205v-665h-227v416l-99 -68z" />
<glyph unicode="&#xba;" horiz-adv-x="1120" d="M307 1116q0 287 244 287q125 0 183.5 -68.5t58.5 -218.5q0 -295 -242 -295q-244 0 -244 295zM379 1116q0 -121 41 -173t132 -52t130 52t39 173t-39 170t-130 49t-132 -50t-41 -169z" />
<glyph unicode="&#xbb;" horiz-adv-x="1425" d="M158 49v287l231 184l-231 160v287l475 -349v-204zM760 49v287l233 184l-233 160v287l475 -349v-204z" />
<glyph unicode="&#xbf;" horiz-adv-x="821" d="M10 -37q0 109 39 194t94.5 134t111.5 88t94 77t38 79v81h307v-88q0 -82 -38 -143t-91 -101l-107 -78q-54 -38 -93 -89t-39 -115q0 -88 30.5 -123t145.5 -35q49 0 128 9.5t134 19.5l55 10l35 -280q-250 -61 -365 -62q-256 0 -367.5 95.5t-111.5 326.5zM387 709v354h307 v-354h-307z" />
<glyph unicode="&#xc0;" horiz-adv-x="1286" d="M51 0l326 1470h559l319 -1470h-294l-66 248h-494l-57 -248h-293zM289 1763l94 271l547 -195l-84 -242zM463 530h377l-140 670h-96z" />
<glyph unicode="&#xc1;" horiz-adv-x="1286" d="M51 0l326 1470h559l319 -1470h-294l-66 248h-494l-57 -248h-293zM322 1882l546 197l95 -271l-555 -166zM463 530h377l-140 670h-96z" />
<glyph unicode="&#xc2;" horiz-adv-x="1286" d="M51 0l326 1470h559l319 -1470h-294l-66 248h-494l-57 -248h-293zM252 1661l278 367h230l282 -367h-305l-90 131l-92 -131h-303zM463 530h377l-140 670h-96z" />
<glyph unicode="&#xc3;" horiz-adv-x="1286" d="M51 0l326 1470h559l319 -1470h-294l-66 248h-494l-57 -248h-293zM238 1894l36 37q23 23 82.5 61t110.5 38q74 0 182.5 -46.5t130.5 -46.5q55 0 174 84l62 -215q-12 -14 -35 -36.5t-82 -60.5t-111 -38q-59 0 -173.5 47t-143.5 47q-27 0 -69 -21.5t-72 -41.5l-29 -21z M463 530h377l-140 670h-96z" />
<glyph unicode="&#xc4;" horiz-adv-x="1286" d="M51 0l326 1470h559l319 -1470h-294l-66 248h-494l-57 -248h-293zM336 1716v283h272v-283h-272zM463 530h377l-140 670h-96zM797 1716v283h272v-283h-272z" />
<glyph unicode="&#xc5;" horiz-adv-x="1286" d="M51 0l314 1415q-29 55 -29 121q0 125 92 196.5t228.5 71.5t227.5 -71.5t91 -196.5q0 -68 -29 -121l309 -1415h-294l-66 248h-494l-57 -248h-293zM463 530h377l-140 670h-96zM555 1536q0 -53 63 -66h76q61 12 62 66q0 31 -27 50.5t-74 19.5t-73.5 -19.5t-26.5 -50.5z" />
<glyph unicode="&#xc6;" horiz-adv-x="1910" d="M102 0l392 1470h1351v-282h-643v-303h514v-281h-514v-323h643v-281h-934v248h-452l-64 -248h-293zM530 530h381l2 658h-213z" />
<glyph unicode="&#xc7;" horiz-adv-x="1142" d="M86 735q0 418 124 589t429 171q82 0 186.5 -14.5t171.5 -32.5l66 -14l-8 -258q-258 31 -373 30q-117 0 -178.5 -38t-89 -139t-27.5 -294q0 -279 58.5 -375t244.5 -96q47 0 138.5 8.5t160.5 16.5l66 8l6 -264q-238 -53 -406 -58v-53q137 -4 200 -42t63 -150 q0 -121 -61.5 -182.5t-174.5 -61.5q-41 0 -91 6t-79 12l-29 7l9 165q66 -2 102 -2q82 0 82 56q0 47 -82 47h-51v203q-262 23 -359.5 201.5t-97.5 553.5z" />
<glyph unicode="&#xc8;" horiz-adv-x="1177" d="M150 0v1470h931v-282h-643v-328h516v-274h-516v-305h643v-281h-931zM289 1763l94 271l547 -195l-84 -242z" />
<glyph unicode="&#xc9;" horiz-adv-x="1216" d="M160 0v1470h934v-282h-645v-328h516v-274h-516v-305h645v-281h-934zM313 1882l547 197l94 -271l-557 -166z" />
<glyph unicode="&#xca;" horiz-adv-x="1216" d="M160 0v1470h934v-282h-645v-328h516v-274h-516v-305h645v-281h-934zM266 1661l279 367h231l281 -367h-305l-90 131l-91 -131h-305z" />
<glyph unicode="&#xcb;" horiz-adv-x="1216" d="M160 0v1470h934v-282h-645v-328h516v-274h-516v-305h645v-281h-934zM287 1716v283h274v-283h-274zM748 1716v283h272v-283h-272z" />
<glyph unicode="&#xcc;" horiz-adv-x="591" d="M-72 1763l92 271l549 -195l-86 -242zM150 0v1470h292v-1470h-292z" />
<glyph unicode="&#xcd;" horiz-adv-x="591" d="M-10 1862l547 196l94 -270l-557 -168zM150 0v1470h292v-1470h-292z" />
<glyph unicode="&#xce;" horiz-adv-x="591" d="M-115 1671l279 318h262l279 -318h-320l-86 92l-88 -92h-326zM150 0v1470h292v-1470h-292z" />
<glyph unicode="&#xcf;" horiz-adv-x="591" d="M-74 1692v280h273v-280h-273zM150 0v1470h292v-1470h-292zM397 1692v280h275v-280h-275z" />
<glyph unicode="&#xd0;" horiz-adv-x="1333" d="M35 874h114v596h484q186 0 308 -40.5t188.5 -133t92 -217.5t25.5 -317q0 -201 -22.5 -331t-88 -233.5t-189.5 -150.5t-314 -47h-483v594h-115v280zM438 279h195q82 0 141.5 22.5t92 58t51 102t23.5 132t5 168.5q0 84 -3 137t-14.5 106.5t-33 84t-56 55t-86 35 t-120.5 10.5h-195v-316h277v-280h-277v-315z" />
<glyph unicode="&#xd1;" horiz-adv-x="1462" d="M125 0v1470h463l407 -1099h31v1099h295v-1470h-449l-421 1100h-31v-1100h-295zM317 1894q12 14 35 37t82.5 61t110.5 38q76 0 184.5 -46.5t128.5 -46.5q55 0 174 84l64 -215l-37 -37q-23 -23 -82 -60.5t-111 -37.5q-59 0 -172.5 47t-144.5 47q-25 0 -68 -21.5t-71 -41.5 l-31 -21z" />
<glyph unicode="&#xd2;" horiz-adv-x="1396" d="M98 725q0 389 136.5 579.5t464 190.5t463.5 -190.5t136 -579.5q0 -387 -135 -568.5t-464.5 -181.5t-465 181.5t-135.5 568.5zM344 1763l94 271l549 -195l-86 -242zM401 725q0 -250 62.5 -358.5t234.5 -108.5t235.5 108.5t63.5 358.5q0 252 -64.5 369.5t-234.5 117.5 t-233.5 -117.5t-63.5 -369.5z" />
<glyph unicode="&#xd3;" horiz-adv-x="1396" d="M98 725q0 389 136.5 579.5t464 190.5t463.5 -190.5t136 -579.5q0 -387 -135 -568.5t-464.5 -181.5t-465 181.5t-135.5 568.5zM348 1882l547 197l94 -271l-557 -166zM401 725q0 -250 62.5 -358.5t234.5 -108.5t235.5 108.5t63.5 358.5q0 252 -64.5 369.5t-234.5 117.5 t-233.5 -117.5t-63.5 -369.5z" />
<glyph unicode="&#xd4;" horiz-adv-x="1396" d="M98 725q0 389 136.5 579.5t464 190.5t463.5 -190.5t136 -579.5q0 -387 -135 -568.5t-464.5 -181.5t-465 181.5t-135.5 568.5zM301 1661l279 367h229l281 -367h-304l-90 131l-92 -131h-303zM401 725q0 -250 62.5 -358.5t234.5 -108.5t235.5 108.5t63.5 358.5 q0 252 -64.5 369.5t-234.5 117.5t-233.5 -117.5t-63.5 -369.5z" />
<glyph unicode="&#xd5;" horiz-adv-x="1396" d="M98 725q0 389 136.5 579.5t464 190.5t463.5 -190.5t136 -579.5q0 -387 -135 -568.5t-464.5 -181.5t-465 181.5t-135.5 568.5zM287 1894l36 37q22 23 82 61t111 38q74 0 182.5 -46.5t130.5 -46.5q55 0 175 84l61 -215q-12 -14 -34.5 -36.5t-82 -60.5t-110.5 -38 q-59 0 -174 47t-144 47q-27 0 -68.5 -21.5t-72.5 -41.5l-29 -21zM401 725q0 -250 62.5 -358.5t234.5 -108.5t235.5 108.5t63.5 358.5q0 252 -64.5 369.5t-234.5 117.5t-233.5 -117.5t-63.5 -369.5z" />
<glyph unicode="&#xd6;" horiz-adv-x="1396" d="M98 725q0 389 136.5 579.5t464 190.5t463.5 -190.5t136 -579.5q0 -387 -135 -568.5t-464.5 -181.5t-465 181.5t-135.5 568.5zM322 1716v283h272v-283h-272zM401 725q0 -250 62.5 -358.5t234.5 -108.5t235.5 108.5t63.5 358.5q0 252 -64.5 369.5t-234.5 117.5 t-233.5 -117.5t-63.5 -369.5zM782 1716v283h273v-283h-273z" />
<glyph unicode="&#xd7;" d="M344 264l369 371l-369 371l184 182l369 -371l371 371l184 -182l-371 -371l371 -371l-184 -182l-371 367l-369 -367z" />
<glyph unicode="&#xd8;" horiz-adv-x="1370" d="M86 725q0 389 136 579.5t464 190.5q100 0 197 -20l121 260l266 -99l-144 -305q160 -180 160 -606q0 -387 -135 -568.5t-465 -181.5q-98 0 -184 17l-123 -266l-258 116l131 279q-166 168 -166 604zM387 725q0 -168 25 -260l344 741q-31 6 -70 6q-170 0 -234.5 -117.5 t-64.5 -369.5zM629 260q16 -2 57 -2q172 0 234.5 108.5t62.5 358.5q0 152 -20 252z" />
<glyph unicode="&#xd9;" horiz-adv-x="1357" d="M12 1763l94 271l547 -195l-84 -242zM127 489v981h295v-981q0 -121 66.5 -171t191.5 -50q258 0 258 221v981h293v-981q0 -266 -137.5 -386.5t-414 -120.5t-414.5 120.5t-138 386.5z" />
<glyph unicode="&#xda;" horiz-adv-x="1366" d="M139 489v981h293v-981q0 -121 67.5 -171t190.5 -50q258 0 258 221v981h293v-981q0 -266 -137 -386.5t-413.5 -120.5t-414 120.5t-137.5 386.5zM342 1882l549 197l92 -271l-555 -166z" />
<glyph unicode="&#xdb;" horiz-adv-x="1366" d="M139 489v981h293v-981q0 -121 67.5 -171t190.5 -50q258 0 258 221v981h293v-981q0 -266 -137 -386.5t-413.5 -120.5t-414 120.5t-137.5 386.5zM297 1661l278 367h230l280 -367h-303l-90 131l-92 -131h-303z" />
<glyph unicode="&#xdc;" horiz-adv-x="1366" d="M139 489v981h293v-981q0 -121 67.5 -171t190.5 -50q258 0 258 221v981h293v-981q0 -266 -137 -386.5t-413.5 -120.5t-414 120.5t-137.5 386.5zM383 1716v283h272v-283h-272zM844 1716v283h272v-283h-272z" />
<glyph unicode="&#xdd;" horiz-adv-x="1148" d="M-10 1470h325l263 -514l260 514h325l-436 -843v-627h-295v629zM193 1882l546 197l95 -271l-558 -166z" />
<glyph unicode="&#xde;" d="M47 0v1470h293v-208h240q520 0 520 -510q0 -258 -133 -399.5t-387 -141.5h-240v-211h-293zM340 496h238q109 0 166 67.5t57 188.5q0 227 -223 227h-238v-483z" />
<glyph unicode="&#xdf;" horiz-adv-x="1337" d="M143 0v1112q0 215 120 307t372 92q258 0 373.5 -74.5t115.5 -254.5q0 -115 -46 -168t-154 -103q-76 -35 -100.5 -53t-24.5 -43q0 -33 33.5 -59.5t166.5 -85.5q152 -72 208.5 -134.5t56.5 -185.5q0 -213 -114 -290.5t-394 -77.5q-39 0 -101.5 12t-105.5 24l-45 15l10 221 q207 -8 242 -8q213 0 213 61q0 43 -35 73t-158 83q-152 63 -212 135t-60 186q0 102 40 162t126 96q100 41 130.5 63.5t30.5 55.5q0 53 -47 73.5t-149 20.5q-207 0 -207 -149v-1106h-285z" />
<glyph unicode="&#xe0;" horiz-adv-x="1140" d="M45 324q0 170 90 242.5t281 84.5l229 17v53q0 41 -29.5 67.5t-76.5 26.5l-414 -16l-8 243q285 45 438 45q188 0 281.5 -83.5t93.5 -280.5v-395q0 -61 13 -82t56 -29l-8 -242q-129 0 -186 15.5t-117 56.5q-178 -72 -326 -72q-156 0 -236.5 92.5t-80.5 256.5zM174 1397 l88 254l547 -197l-78 -223zM332 332q0 -113 88 -113q39 0 95 7t93 18l37 8v197l-194 -9q-119 -6 -119 -108z" />
<glyph unicode="&#xe1;" horiz-adv-x="1140" d="M45 324q0 170 90 242.5t281 84.5l229 17v53q0 41 -29.5 67.5t-76.5 26.5l-414 -16l-8 243q285 45 438 45q188 0 281.5 -83.5t93.5 -280.5v-395q0 -61 13 -82t56 -29l-8 -242q-129 0 -186 15.5t-117 56.5q-178 -72 -326 -72q-156 0 -236.5 92.5t-80.5 256.5zM188 1456 l547 197l94 -271l-557 -165zM332 332q0 -113 88 -113q39 0 95 7t93 18l37 8v197l-194 -9q-119 -6 -119 -108z" />
<glyph unicode="&#xe2;" horiz-adv-x="1140" d="M45 324q0 170 90 242.5t281 84.5l229 17v53q0 41 -29.5 67.5t-76.5 26.5l-414 -16l-8 243q285 45 438 45q188 0 281.5 -83.5t93.5 -280.5v-395q0 -61 13 -82t56 -29l-8 -242q-129 0 -186 15.5t-117 56.5q-178 -72 -326 -72q-156 0 -236.5 92.5t-80.5 256.5zM123 1235 l280 367h230l280 -367h-305l-88 131l-92 -131h-305zM332 332q0 -113 88 -113q39 0 95 7t93 18l37 8v197l-194 -9q-119 -6 -119 -108z" />
<glyph unicode="&#xe3;" horiz-adv-x="1140" d="M45 324q0 170 90 242.5t281 84.5l229 17v53q0 41 -29.5 67.5t-76.5 26.5l-414 -16l-8 243q285 45 438 45q188 0 281.5 -83.5t93.5 -280.5v-395q0 -61 13 -82t56 -29l-8 -242q-129 0 -186 15.5t-117 56.5q-178 -72 -326 -72q-156 0 -236.5 92.5t-80.5 256.5zM111 1468 q12 14 34.5 37t82 61t110.5 38q76 0 184.5 -46.5t128.5 -46.5q55 0 176 84l62 -215l-36 -37q-22 -23 -82 -60.5t-112 -37.5q-59 0 -172.5 47t-144.5 47q-25 0 -68 -21.5t-71 -41.5l-31 -21zM332 332q0 -113 88 -113q39 0 95 7t93 18l37 8v197l-194 -9q-119 -6 -119 -108z " />
<glyph unicode="&#xe4;" horiz-adv-x="1140" d="M45 324q0 170 90 242.5t281 84.5l229 17v53q0 41 -29.5 67.5t-76.5 26.5l-414 -16l-8 243q285 45 438 45q188 0 281.5 -83.5t93.5 -280.5v-395q0 -61 13 -82t56 -29l-8 -242q-129 0 -186 15.5t-117 56.5q-178 -72 -326 -72q-156 0 -236.5 92.5t-80.5 256.5zM162 1290v283 h272v-283h-272zM332 332q0 -113 88 -113q39 0 95 7t93 18l37 8v197l-194 -9q-119 -6 -119 -108zM623 1290v283h272v-283h-272z" />
<glyph unicode="&#xe5;" horiz-adv-x="1140" d="M45 324q0 170 90 242.5t281 84.5l229 17v53q0 41 -29.5 67.5t-76.5 26.5l-414 -16l-8 243q285 45 438 45q188 0 281.5 -83.5t93.5 -280.5v-395q0 -61 13 -82t56 -29l-8 -242q-129 0 -186 15.5t-117 56.5q-178 -72 -326 -72q-156 0 -236.5 92.5t-80.5 256.5zM299 1360 q0 102 70.5 175t177.5 73q104 0 177 -73t73 -175q0 -106 -73 -178t-177 -72q-106 0 -177 72t-71 178zM332 332q0 -113 88 -113q39 0 95 7t93 18l37 8v197l-194 -9q-119 -6 -119 -108zM483 1360q0 -31 18.5 -49.5t47.5 -18.5t47 19.5t18 47t-18 46t-46 18.5t-47.5 -18 t-19.5 -45z" />
<glyph unicode="&#xe6;" horiz-adv-x="1763" d="M111 324q0 170 93 243.5t277 83.5l230 17v53q0 41 -30 67.5t-77 26.5q-70 0 -173 -5t-171 -11l-67 -6l-11 249q285 45 441 45q182 0 274 -77q111 78 283 77q465 0 465 -479l-23 -198h-625q2 -92 51.5 -133t163.5 -41l394 20l4 -221q-244 -59 -443 -60q-217 0 -325 101 l-49 -23q-178 -78 -365 -78q-156 0 -236.5 92.5t-80.5 256.5zM397 332q0 -113 88 -113q39 0 95.5 7t93.5 18l37 8q0 33 -1 99.5t-1 97.5l-191 -9q-121 -6 -121 -108zM997 629h367q0 113 -42 160t-142 47q-102 0 -142.5 -49t-40.5 -158z" />
<glyph unicode="&#xe7;" horiz-adv-x="927" d="M74 542.5q0 284.5 106.5 414.5t343.5 130q55 0 140.5 -11t142.5 -21l57 -11l-8 -245q-168 16 -250 16q-147 0 -194 -57.5t-47 -214.5q0 -174 48 -234.5t195 -60.5l248 16l8 -246q-164 -31 -284 -41v-55q135 -4 198.5 -42t63.5 -150q0 -121 -62.5 -182.5t-175.5 -61.5 q-39 0 -89 6t-81 12l-26 7l8 165q66 -2 102 -2q80 0 80 56q0 47 -80 47h-51v200q-209 12 -301 146.5t-92 419z" />
<glyph unicode="&#xe8;" horiz-adv-x="1056" d="M70 518q0 569 471 569q465 0 465 -479l-23 -198h-625q2 -92 51.5 -133t163.5 -41l394 20l4 -221q-244 -59 -443 -60q-242 0 -350 127t-108 416zM172 1354l88 254l547 -195l-78 -225zM356 629h369q0 113 -42 160t-142.5 47t-141.5 -49t-43 -158z" />
<glyph unicode="&#xe9;" horiz-adv-x="1056" d="M70 518q0 569 471 569q465 0 465 -479l-23 -198h-625q2 -92 51.5 -133t163.5 -41l394 20l4 -221q-244 -59 -443 -60q-242 0 -350 127t-108 416zM238 1456l548 197l95 -271l-557 -165zM356 629h369q0 113 -42 160t-142.5 47t-141.5 -49t-43 -158z" />
<glyph unicode="&#xea;" horiz-adv-x="1056" d="M70 518q0 569 471 569q465 0 465 -479l-23 -198h-625q2 -92 51.5 -133t163.5 -41l394 20l4 -221q-244 -59 -443 -60q-242 0 -350 127t-108 416zM166 1235l278 367h232l280 -367h-305l-88 131l-92 -131h-305zM356 629h369q0 113 -42 160t-142.5 47t-141.5 -49t-43 -158z " />
<glyph unicode="&#xeb;" horiz-adv-x="1056" d="M70 518q0 569 471 569q465 0 465 -479l-23 -198h-625q2 -92 51.5 -133t163.5 -41l394 20l4 -221q-244 -59 -443 -60q-242 0 -350 127t-108 416zM174 1290v283h272v-283h-272zM356 629h369q0 113 -42 160t-142.5 47t-141.5 -49t-43 -158zM635 1290v283h272v-283h-272z" />
<glyph unicode="&#xec;" horiz-adv-x="555" d="M-59 1397l88 254l546 -197l-79 -223zM143 0v1063h285v-1063h-285z" />
<glyph unicode="&#xed;" horiz-adv-x="555" d="M-2 1456l547 197l94 -271l-555 -165zM143 0v1063h285v-1063h-285z" />
<glyph unicode="&#xee;" horiz-adv-x="569" d="M-121 1235l279 367h229l283 -367h-305l-91 131l-92 -131h-303zM143 0v1063h285v-1063h-285z" />
<glyph unicode="&#xef;" horiz-adv-x="555" d="M-92 1290v283h272v-283h-272zM143 0v1063h285v-1063h-285zM369 1290v283h272v-283h-272z" />
<glyph unicode="&#xf0;" d="M47 498q0 201 128 318.5t337 117.5q66 0 133.5 -13.5t104.5 -25.5l34 -10q-10 111 -63 175t-178 107l-219 -172l-115 162l88 68l-156 24l37 242q223 -16 383 -59l203 159l117 -161l-103 -82q311 -170 312 -609q0 -389 -127 -573t-416 -184q-244 0 -372 131t-128 385z M354 498q0 -252 193 -252q238 0 237 389q-102 49 -256 49q-80 0 -127 -55t-47 -131z" />
<glyph unicode="&#xf1;" horiz-adv-x="1220" d="M164 0v1063h285v-47q166 72 264 71q213 0 293.5 -128t80.5 -404v-555h-284v555q0 137 -30 201.5t-120 64.5q-31 0 -82 -8t-86 -16l-36 -11v-786h-285zM223 1468q12 14 35 37t83 61t110 38q76 0 184 -46.5t129 -46.5q55 0 176 84l61 -215q-12 -14 -34.5 -36.5t-83 -60.5 t-109.5 -38q-61 0 -175 47t-142 47q-27 0 -70 -21.5t-72 -41.5l-30 -21z" />
<glyph unicode="&#xf2;" d="M74 532.5q0 264.5 113.5 409.5t377.5 145t377 -145t113 -409.5t-113 -411t-377 -146.5t-377.5 146.5t-113.5 411zM254 1397l86 254l549 -197l-80 -223zM365 532.5q0 -155.5 43 -228.5t156.5 -73t156.5 73t43 228.5t-43 227t-156.5 71.5t-156.5 -71.5t-43 -227z" />
<glyph unicode="&#xf3;" d="M74 532.5q0 264.5 113.5 409.5t377.5 145t377 -145t113 -409.5t-113 -411t-377 -146.5t-377.5 146.5t-113.5 411zM203 1456l547 197l94 -271l-557 -165zM365 532.5q0 -155.5 43 -228.5t156.5 -73t156.5 73t43 228.5t-43 227t-156.5 71.5t-156.5 -71.5t-43 -227z" />
<glyph unicode="&#xf4;" d="M74 532.5q0 264.5 113.5 409.5t377.5 145t377 -145t113 -409.5t-113 -411t-377 -146.5t-377.5 146.5t-113.5 411zM156 1235l278 367h230l282 -367h-305l-90 131l-90 -131h-305zM365 532.5q0 -155.5 43 -228.5t156.5 -73t156.5 73t43 228.5t-43 227t-156.5 71.5 t-156.5 -71.5t-43 -227z" />
<glyph unicode="&#xf5;" d="M74 532.5q0 264.5 113.5 409.5t377.5 145t377 -145t113 -409.5t-113 -411t-377 -146.5t-377.5 146.5t-113.5 411zM164 1468q12 14 34.5 37t82 61t110.5 38q76 0 184.5 -46.5t129.5 -46.5q55 0 176 84l61 -215l-36 -37q-22 -23 -82 -60.5t-111 -37.5q-59 0 -173 47 t-145 47q-25 0 -67.5 -21.5t-71.5 -41.5l-31 -21zM365 532.5q0 -155.5 43 -228.5t156.5 -73t156.5 73t43 228.5t-43 227t-156.5 71.5t-156.5 -71.5t-43 -227z" />
<glyph unicode="&#xf6;" d="M74 532.5q0 264.5 113.5 409.5t377.5 145t377 -145t113 -409.5t-113 -411t-377 -146.5t-377.5 146.5t-113.5 411zM197 1290v283h272v-283h-272zM365 532.5q0 -155.5 43 -228.5t156.5 -73t156.5 73t43 228.5t-43 227t-156.5 71.5t-156.5 -71.5t-43 -227zM655 1290v283h273 v-283h-273z" />
<glyph unicode="&#xf7;" d="M20 487v261h1080v-261h-1080zM428 98v281h281v-281h-281zM428 856v281h281v-281h-281z" />
<glyph unicode="&#xf8;" d="M74 532q0 264 113.5 409.5t377.5 145.5q59 0 119 -10l84 215l174 -63l-88 -211q201 -125 201 -486q0 -264 -113 -410.5t-377 -146.5q-76 0 -135 13l-88 -217l-170 63l90 217q-188 127 -188 481zM365 532q0 -129 24 -196l197 493q-2 0 -10.5 1t-10.5 1 q-115 0 -157.5 -71.5t-42.5 -227.5zM526 233q12 -2 39 -2q113 0 156 73t43 228q0 141 -33 207z" />
<glyph unicode="&#xf9;" horiz-adv-x="1193" d="M127 508v555h287v-555q0 -164 24.5 -220.5t124.5 -56.5q31 0 82 10.5l88 18.5l33 8v795h287v-1063h-287v45q-166 -70 -264 -70q-223 0 -299 121t-76 412zM182 1380l103 269l546 -197l-100 -260z" />
<glyph unicode="&#xfa;" horiz-adv-x="1193" d="M127 508v555h287v-555q0 -164 24.5 -220.5t124.5 -56.5q31 0 82 10.5l88 18.5l33 8v795h287v-1063h-287v45q-166 -70 -264 -70q-223 0 -299 121t-76 412zM233 1456l549 197l92 -271l-555 -165z" />
<glyph unicode="&#xfb;" horiz-adv-x="1193" d="M127 508v555h287v-555q0 -164 24.5 -220.5t124.5 -56.5q31 0 82 10.5l88 18.5l33 8v795h287v-1063h-287v45q-166 -70 -264 -70q-223 0 -299 121t-76 412zM145 1235l279 367h229l283 -367h-305l-90 131l-92 -131h-304z" />
<glyph unicode="&#xfc;" horiz-adv-x="1193" d="M127 508v555h287v-555q0 -164 24.5 -220.5t124.5 -56.5q31 0 82 10.5l88 18.5l33 8v795h287v-1063h-287v45q-166 -70 -264 -70q-223 0 -299 121t-76 412zM229 1290v283h273v-283h-273zM690 1290v283h273v-283h-273z" />
<glyph unicode="&#xfd;" horiz-adv-x="1021" d="M-2 1063h281l194 -784h49l193 784h282l-372 -1507h-283l109 444h-191zM215 1456l547 197l94 -271l-555 -165z" />
<glyph unicode="&#xfe;" horiz-adv-x="1144" d="M156 -446v1937h284v-451q137 47 232 47q223 0 326.5 -122.5t103.5 -421.5q0 -332 -120 -450t-411 -118q-18 0 -64 3.5t-67 3.5v-428h-284zM440 244q98 -12 131 -13q141 0 190.5 68t49.5 244q0 154 -45 217t-133 63l-193 -16v-563z" />
<glyph unicode="&#xff;" horiz-adv-x="1032" d="M16 1063h283l193 -784h49l194 784h281l-373 -1507h-281l109 444h-192zM164 1290v283h272v-283h-272zM625 1290v283h272v-283h-272z" />
<glyph unicode="&#x100;" horiz-adv-x="1288" d="M43 0l326 1470h557l319 -1470h-293l-65 248h-496l-55 -248h-293zM270 1688v245h740v-245h-740zM455 530h376l-139 670h-96z" />
<glyph unicode="&#x101;" horiz-adv-x="1124" d="M86 324q0 170 90 242.5t281 84.5l229 17v53q0 41 -29.5 67.5t-76.5 26.5l-414 -16l-8 243q283 45 438 45q188 0 281.5 -83.5t93.5 -280.5v-395q0 -61 13 -82t56 -29l-10 -242q-127 0 -184.5 15.5t-116.5 56.5q-180 -72 -326 -72q-156 0 -236.5 92.5t-80.5 256.5z M209 1325v248h696v-248h-696zM373 332q0 -113 88 -113q37 0 93 7t93 18l39 8v197l-194 -9q-119 -6 -119 -108z" />
<glyph unicode="&#x102;" horiz-adv-x="1288" d="M43 0l326 1470h557l319 -1470h-293l-65 248h-496l-55 -248h-293zM248 1980h295q18 -82 100 -82q88 0 102 82h297q-18 -145 -116.5 -233t-281.5 -88t-281.5 88t-114.5 233zM455 530h376l-139 670h-96z" />
<glyph unicode="&#x103;" horiz-adv-x="1124" d="M86 324q0 170 90 242.5t281 84.5l229 17v53q0 41 -29.5 67.5t-76.5 26.5l-414 -16l-8 243q283 45 438 45q188 0 281.5 -83.5t93.5 -280.5v-395q0 -61 13 -82t56 -29l-10 -242q-127 0 -184.5 15.5t-116.5 56.5q-180 -72 -326 -72q-156 0 -236.5 92.5t-80.5 256.5z M150 1593h294q16 -94 119 -94q104 0 117 94h295q-16 -160 -119.5 -254t-293 -94t-293 94t-119.5 254zM373 332q0 -113 88 -113q37 0 93 7t93 18l39 8v197l-194 -9q-119 -6 -119 -108z" />
<glyph unicode="&#x104;" horiz-adv-x="1288" d="M43 0l326 1470h557l319 -1470h-12q-106 -90 -107 -162q0 -53 43 -53l80 6l29 -227q-125 -25 -217 -25q-102 0 -167 55.5t-65 149.5q0 145 140 256h-17l-65 248h-496l-55 -248h-293zM455 530h376l-139 670h-96z" />
<glyph unicode="&#x105;" horiz-adv-x="1124" d="M86 324q0 170 90 242.5t281 84.5l229 17v53q0 41 -29.5 67.5t-76.5 26.5l-414 -16l-8 243q283 45 438 45q188 0 281.5 -83.5t93.5 -280.5v-395q0 -61 13 -82t56 -29l-10 -242q-41 0 -59 2q-80 -78 -80 -139q0 -53 43 -53l80 6l28 -227q-127 -25 -219 -25 q-100 0 -165.5 55.5t-65.5 149.5q0 49 18.5 95t43 78t50 57.5t41.5 37.5l19 11q-4 2 -35 24q-180 -72 -326 -72q-156 0 -236.5 92.5t-80.5 256.5zM373 332q0 -113 88 -113q37 0 93 7t93 18l39 8v197l-194 -9q-119 -6 -119 -108z" />
<glyph unicode="&#x106;" horiz-adv-x="1126" d="M86 735q0 418 124 589t429 171q82 0 186.5 -14.5t171.5 -32.5l66 -14l-8 -258q-258 31 -373 30q-117 0 -178.5 -38t-89 -139t-27.5 -294q0 -279 58.5 -375t244.5 -96q47 0 138.5 8.5t160.5 16.5l66 8l6 -264q-254 -57 -422 -58q-322 0 -437.5 177t-115.5 583zM307 1862 l547 196l94 -270l-557 -168z" />
<glyph unicode="&#x107;" horiz-adv-x="927" d="M74 543q0 285 106.5 414.5t343.5 129.5q55 0 140.5 -11t142.5 -21l57 -11l-8 -245q-168 16 -250 16q-147 0 -194 -57.5t-47 -214.5q0 -174 48 -234.5t195 -60.5l248 16l8 -246q-227 -43 -346 -43q-238 0 -341 133.5t-103 434.5zM188 1456l547 197l94 -271l-557 -165z" />
<glyph unicode="&#x108;" horiz-adv-x="1126" d="M86 735q0 418 124 589t429 171q82 0 186.5 -14.5t171.5 -32.5l66 -14l-8 -258q-258 31 -373 30q-117 0 -178.5 -38t-89 -139t-27.5 -294q0 -279 58.5 -375t244.5 -96q47 0 138.5 8.5t160.5 16.5l66 8l6 -264q-254 -57 -422 -58q-322 0 -437.5 177t-115.5 583zM215 1671 l279 318h262l278 -318h-319l-86 92l-88 -92h-326z" />
<glyph unicode="&#x109;" horiz-adv-x="927" d="M72 1235l280 367h230l280 -367h-305l-88 131l-92 -131h-305zM74 543q0 285 106.5 414.5t343.5 129.5q55 0 140.5 -11t142.5 -21l57 -11l-8 -245q-168 16 -250 16q-147 0 -194 -57.5t-47 -214.5q0 -174 48 -234.5t195 -60.5l248 16l8 -246q-227 -43 -346 -43 q-238 0 -341 133.5t-103 434.5z" />
<glyph unicode="&#x10a;" horiz-adv-x="1126" d="M86 735q0 418 124 589t429 171q82 0 186.5 -14.5t171.5 -32.5l66 -14l-8 -258q-258 31 -373 30q-117 0 -178.5 -38t-89 -139t-27.5 -294q0 -279 58.5 -375t244.5 -96q47 0 138.5 8.5t160.5 16.5l66 8l6 -264q-254 -57 -422 -58q-322 0 -437.5 177t-115.5 583zM483 1655 v287h285v-287h-285z" />
<glyph unicode="&#x10b;" horiz-adv-x="927" d="M74 543q0 285 106.5 414.5t343.5 129.5q55 0 140.5 -11t142.5 -21l57 -11l-8 -245q-168 16 -250 16q-147 0 -194 -57.5t-47 -214.5q0 -174 48 -234.5t195 -60.5l248 16l8 -246q-227 -43 -346 -43q-238 0 -341 133.5t-103 434.5zM365 1184v289h284v-289h-284z" />
<glyph unicode="&#x10c;" horiz-adv-x="1126" d="M86 735q0 418 124 589t429 171q82 0 186.5 -14.5t171.5 -32.5l66 -14l-8 -258q-258 31 -373 30q-117 0 -178.5 -38t-89 -139t-27.5 -294q0 -279 58.5 -375t244.5 -96q47 0 138.5 8.5t160.5 16.5l66 8l6 -264q-254 -57 -422 -58q-322 0 -437.5 177t-115.5 583zM236 1980 h327l86 -98l88 98h320l-279 -315h-258z" />
<glyph unicode="&#x10d;" horiz-adv-x="927" d="M74 543q0 285 106.5 414.5t343.5 129.5q55 0 140.5 -11t142.5 -21l57 -11l-8 -245q-168 16 -250 16q-147 0 -194 -57.5t-47 -214.5q0 -174 48 -234.5t195 -60.5l248 16l8 -246q-227 -43 -346 -43q-238 0 -341 133.5t-103 434.5zM117 1602h307l90 -127l86 127h307 l-276 -367h-240z" />
<glyph unicode="&#x10e;" horiz-adv-x="1333" d="M149 0v1470h484q186 0 308 -40.5t188.5 -133t92 -217.5t25.5 -317q0 -201 -22.5 -331t-88 -233.5t-189.5 -150.5t-314 -47h-484zM231 1980h326l88 -98l88 98h320l-279 -315h-258zM438 279h195q82 0 141.5 22.5t92 58t51 102t23.5 132t5 168.5q0 84 -3 137t-14.5 106.5 t-33 84t-56 55t-86 35t-120.5 10.5h-195v-911z" />
<glyph unicode="&#x10f;" horiz-adv-x="1638" d="M74 543q0 285 110.5 414.5t331.5 129.5q33 0 90.5 -7t98.5 -13l40 -6v430h285v-1491h-285v43q-147 -66 -256 -66q-231 0 -323 136.5t-92 429.5zM365 543q0 -164 36.5 -231.5t137.5 -69.5q84 2 206 28v541q-117 20 -208 20q-172 1 -172 -288zM1200 918v555h277v-555h-277z " />
<glyph unicode="&#x110;" horiz-adv-x="1333" d="M35 870h114v600h484q186 0 308 -40.5t188.5 -133t92 -217.5t25.5 -317q0 -201 -22.5 -331t-88 -233.5t-189.5 -150.5t-314 -47h-483v590h-115v280zM438 279h195q82 0 141.5 22.5t92 58t51 102t23.5 132t5 168.5q0 84 -3 137t-14.5 106.5t-33 84t-56 55t-86 35 t-120.5 10.5h-195v-320h277v-280h-277v-311z" />
<glyph unicode="&#x111;" horiz-adv-x="1161" d="M74 543q0 285 110.5 414.5t331.5 129.5q33 0 90.5 -7t98.5 -13l40 -6v264h-477v248h697v-82h65v-1491h-285v43q-147 -66 -256 -66q-231 0 -323 136.5t-92 429.5zM365 543q0 -164 36.5 -231.5t137.5 -69.5q84 2 206 28v541q-117 20 -208 20q-172 1 -172 -288z" />
<glyph unicode="&#x112;" horiz-adv-x="1177" d="M150 0v1470h931v-282h-643v-328h516v-274h-516v-305h643v-281h-931zM242 1708v248h737v-248h-737z" />
<glyph unicode="&#x113;" horiz-adv-x="1079" d="M74 518q0 569 471 569q465 0 465 -479l-21 -198h-627q2 -92 51.5 -133t164.5 -41l393 20l4 -221q-244 -59 -443 -60q-242 0 -350 127t-108 416zM193 1325v248h696v-248h-696zM360 629h369q0 113 -42 160t-142.5 47t-141.5 -49t-43 -158z" />
<glyph unicode="&#x114;" horiz-adv-x="1177" d="M150 0v1470h931v-282h-643v-328h516v-274h-516v-305h643v-281h-931zM233 1980h297q16 -82 101 -82q86 0 102 82h295q-16 -145 -115.5 -233t-283 -88t-281 88t-115.5 233z" />
<glyph unicode="&#x115;" horiz-adv-x="1079" d="M74 518q0 569 471 569q465 0 465 -479l-21 -198h-627q2 -92 51.5 -133t164.5 -41l393 20l4 -221q-244 -59 -443 -60q-242 0 -350 127t-108 416zM125 1593h297q14 -94 117 -94q104 0 116 94h297q-16 -160 -119.5 -254t-293 -94t-293 94t-121.5 254zM360 629h369 q0 113 -42 160t-142.5 47t-141.5 -49t-43 -158z" />
<glyph unicode="&#x116;" horiz-adv-x="1177" d="M150 0v1470h931v-282h-643v-328h516v-274h-516v-305h643v-281h-931zM487 1655v287h287v-287h-287z" />
<glyph unicode="&#x117;" horiz-adv-x="1079" d="M74 518q0 569 471 569q465 0 465 -479l-21 -198h-627q2 -92 51.5 -133t164.5 -41l393 20l4 -221q-244 -59 -443 -60q-242 0 -350 127t-108 416zM360 629h369q0 113 -42 160t-142.5 47t-141.5 -49t-43 -158zM395 1184v289h287v-289h-287z" />
<glyph unicode="&#x118;" horiz-adv-x="1177" d="M150 0v1470h931v-282h-643v-328h516v-274h-516v-305h643v-281h-34q-106 -90 -107 -162q0 -53 41 -53l82 6l27 -227q-125 -25 -218 -25q-102 0 -166.5 55.5t-64.5 149.5q0 145 141 256h-632z" />
<glyph unicode="&#x119;" horiz-adv-x="1079" d="M74 518q0 569 471 569q465 0 465 -479l-21 -198h-627q2 -92 51.5 -133t164.5 -41l393 20l4 -221q-41 -12 -98 -23h6q-113 -88 -113 -164q0 -53 43 -53l82 6l27 -227q-125 -23 -217 -23q-102 0 -167 55.5t-65 147.5q0 121 100 221h-41q-242 0 -350 127t-108 416zM360 629 h369q0 113 -42 160t-142.5 47t-141.5 -49t-43 -158z" />
<glyph unicode="&#x11a;" horiz-adv-x="1177" d="M150 0v1470h931v-282h-643v-328h516v-274h-516v-305h643v-281h-931zM274 2019h326l88 -98l88 98h320l-281 -315h-258z" />
<glyph unicode="&#x11b;" horiz-adv-x="1079" d="M74 518q0 569 471 569q465 0 465 -479l-21 -198h-627q2 -92 51.5 -133t164.5 -41l393 20l4 -221q-244 -59 -443 -60q-242 0 -350 127t-108 416zM145 1602h306l90 -127l88 127h307l-279 -367h-237zM360 629h369q0 113 -42 160t-142.5 47t-141.5 -49t-43 -158z" />
<glyph unicode="&#x11c;" horiz-adv-x="1265" d="M86 739q0 401 132 578.5t450 177.5q98 0 224 -14.5t204 -32.5l75 -14l-8 -254q-256 29 -450 28q-190 0 -258 -94t-68 -375q0 -283 62.5 -381t255.5 -98l178 8v250h-133v262h421v-757q-305 -47 -493 -48q-330 0 -461 186.5t-131 577.5zM264 1671l279 318h262l278 -318 h-319l-86 92l-88 -92h-326z" />
<glyph unicode="&#x11d;" horiz-adv-x="1144" d="M74 -195q0 139 151 256q-76 53 -75 160q0 25 21.5 67t41.5 74l18 29q-143 104 -143 318q0 195 122 285.5t325 90.5q43 0 96 -6t84 -14l35 -6l327 6v-227h-133q35 -63 35 -129q0 -213 -108.5 -294t-340.5 -81q-49 0 -88 8q-20 -55 -20 -82q0 -43 37 -56.5t170 -13.5 q268 0 366.5 -70.5t98.5 -250.5q0 -195 -141.5 -288t-364.5 -93q-256 0 -385 67.5t-129 249.5zM178 1235l281 367h229l281 -367h-305l-89 131l-92 -131h-305zM356 -164q0 -92 234 -92q215 0 215 106q0 57 -38 74t-163 19l-190 14q-58 -58 -58 -121zM373 708.5 q0 -71.5 35.5 -103.5t121.5 -32q90 0 129 31t39 105q0 72 -38.5 103.5t-127.5 31.5q-86 0 -122.5 -32t-36.5 -103.5z" />
<glyph unicode="&#x11e;" horiz-adv-x="1265" d="M86 739q0 401 132 578.5t450 177.5q98 0 224 -14.5t204 -32.5l75 -14l-8 -254q-256 29 -450 28q-190 0 -258 -94t-68 -375q0 -283 62.5 -381t255.5 -98l178 8v250h-133v262h421v-757q-305 -47 -493 -48q-330 0 -461 186.5t-131 577.5zM279 1980h296q16 -82 101 -82 q86 0 102 82h295q-16 -145 -115.5 -233t-282.5 -88t-280.5 88t-115.5 233z" />
<glyph unicode="&#x11f;" horiz-adv-x="1144" d="M74 -195q0 139 151 256q-76 53 -75 160q0 25 21.5 67t41.5 74l18 29q-143 104 -143 318q0 195 122 285.5t325 90.5q43 0 96 -6t84 -14l35 -6l327 6v-227h-133q35 -63 35 -129q0 -213 -108.5 -294t-340.5 -81q-49 0 -88 8q-20 -55 -20 -82q0 -43 37 -56.5t170 -13.5 q268 0 366.5 -70.5t98.5 -250.5q0 -195 -141.5 -288t-364.5 -93q-256 0 -385 67.5t-129 249.5zM160 1593h297q14 -94 116 -94q104 0 117 94h297q-18 -160 -121.5 -254t-293 -94t-293 94t-119.5 254zM356 -164q0 -92 234 -92q215 0 215 106q0 57 -38 74t-163 19l-190 14 q-58 -58 -58 -121zM373 708.5q0 -71.5 35.5 -103.5t121.5 -32q90 0 129 31t39 105q0 72 -38.5 103.5t-127.5 31.5q-86 0 -122.5 -32t-36.5 -103.5z" />
<glyph unicode="&#x120;" horiz-adv-x="1265" d="M86 739q0 401 132 578.5t450 177.5q98 0 224 -14.5t204 -32.5l75 -14l-8 -254q-256 29 -450 28q-190 0 -258 -94t-68 -375q0 -283 62.5 -381t255.5 -98l178 8v250h-133v262h421v-757q-305 -47 -493 -48q-330 0 -461 186.5t-131 577.5zM512 1675v289h285v-289h-285z" />
<glyph unicode="&#x121;" horiz-adv-x="1144" d="M74 -195q0 139 151 256q-76 53 -75 160q0 25 21.5 67t41.5 74l18 29q-143 104 -143 318q0 195 122 285.5t325 90.5q43 0 96 -6t84 -14l35 -6l327 6v-227h-133q35 -63 35 -129q0 -213 -108.5 -294t-340.5 -81q-49 0 -88 8q-20 -55 -20 -82q0 -43 37 -56.5t170 -13.5 q268 0 366.5 -70.5t98.5 -250.5q0 -195 -141.5 -288t-364.5 -93q-256 0 -385 67.5t-129 249.5zM356 -164q0 -92 234 -92q215 0 215 106q0 57 -38 74t-163 19l-190 14q-58 -58 -58 -121zM373 708.5q0 -71.5 35.5 -103.5t121.5 -32q90 0 129 31t39 105q0 72 -38.5 103.5 t-127.5 31.5q-86 0 -122.5 -32t-36.5 -103.5zM430 1184v289h285v-289h-285z" />
<glyph unicode="&#x122;" horiz-adv-x="1265" d="M86 739q0 401 132 578.5t450 177.5q98 0 224 -14.5t204 -32.5l75 -14l-8 -254q-256 29 -450 28q-190 0 -258 -94t-68 -375q0 -283 62.5 -381t255.5 -98l178 8v250h-133v262h421v-757q-305 -47 -493 -48q-330 0 -461 186.5t-131 577.5zM442 -662l99 498h276l-117 -498 h-258z" />
<glyph unicode="&#x123;" horiz-adv-x="1144" d="M74 -195q0 139 151 256q-76 53 -75 160q0 25 21.5 67t41.5 74l18 29q-143 104 -143 318q0 195 122 285.5t325 90.5q43 0 96 -6t84 -14l35 -6l327 6v-227h-133q35 -63 35 -129q0 -213 -108.5 -294t-340.5 -81q-49 0 -88 8q-20 -55 -20 -82q0 -43 37 -56.5t170 -13.5 q268 0 366.5 -70.5t98.5 -250.5q0 -195 -141.5 -288t-364.5 -93q-256 0 -385 67.5t-129 249.5zM356 -164q0 -92 234 -92q215 0 215 106q0 57 -38 74t-163 19l-190 14q-58 -58 -58 -121zM358 1241l117 500h258l-98 -500h-277zM373 708.5q0 -71.5 35.5 -103.5t121.5 -32 q90 0 129 31t39 105q0 72 -38.5 103.5t-127.5 31.5q-86 0 -122.5 -32t-36.5 -103.5z" />
<glyph unicode="&#x124;" horiz-adv-x="1411" d="M150 0v1470h292v-579h539v579h295v-1470h-295v606h-539v-606h-292zM303 1659l279 317h262l278 -317h-319l-88 92l-86 -92h-326z" />
<glyph unicode="&#x125;" horiz-adv-x="1193" d="M143 0v1491h285v-459q164 55 264 55q213 0 294 -128t81 -402v-557h-285v557q0 135 -29.5 199.5t-119.5 64.5l-205 -24v-797h-285zM203 1597l278 367h230l282 -367h-305l-90 129l-90 -129h-305z" />
<glyph unicode="&#x126;" horiz-adv-x="1411" d="M23 1034v248h127v188h292v-188h539v188h295v-188h141v-248h-141v-1034h-295v606h-539v-606h-292v1034h-127zM442 891h539v143h-539v-143z" />
<glyph unicode="&#x127;" horiz-adv-x="1193" d="M37 1133v247h106v111h285v-111h305v-247h-305v-101q164 55 264 55q213 0 294 -128t81 -402v-557h-285v557q0 135 -29.5 199.5t-119.5 64.5l-205 -24v-797h-285v1133h-106z" />
<glyph unicode="&#x128;" horiz-adv-x="591" d="M-113 1853q12 14 35 37t82 61t111 38q76 0 205 -45.5t151 -45.5q55 0 174 82l62 -217q-12 -14 -35 -36.5t-82.5 -59.5t-110.5 -37q-59 0 -194 46t-166 46q-25 0 -68 -20.5t-71 -42.5l-31 -21zM150 0v1470h292v-1470h-292z" />
<glyph unicode="&#x129;" horiz-adv-x="569" d="M-119 1468q12 14 35 37t82 61t111 38q74 0 183 -46.5t130 -46.5q55 0 174 84l61 -215q-12 -14 -34.5 -36.5t-82 -60.5t-110.5 -38q-59 0 -173 47t-144 47q-25 0 -68 -21.5t-74 -41.5l-28 -21zM143 0v1063h285v-1063h-285z" />
<glyph unicode="&#x12a;" horiz-adv-x="591" d="M-72 1733v245h740v-245h-740zM150 0v1470h292v-1470h-292z" />
<glyph unicode="&#x12b;" horiz-adv-x="569" d="M-61 1325v248h696v-248h-696zM143 0v1063h285v-1063h-285z" />
<glyph unicode="&#x12c;" horiz-adv-x="591" d="M-100 1980h297q16 -82 100 -82q86 0 100 82h297q-16 -145 -115.5 -233t-282.5 -88t-281.5 88t-114.5 233zM150 0v1470h292v-1470h-292z" />
<glyph unicode="&#x12d;" horiz-adv-x="569" d="M-127 1593h295q14 -94 117 -94q104 0 118 94h295q-16 -160 -119.5 -254t-293 -94t-293 94t-119.5 254zM143 0v1063h285v-1063h-285z" />
<glyph unicode="&#x12e;" horiz-adv-x="591" d="M35 -256q0 145 139 256h-24v1470h292v-1470h-4q-106 -90 -106 -162q0 -53 43 -53l82 6l26 -227q-125 -25 -217 -25q-102 0 -166.5 55.5t-64.5 149.5z" />
<glyph unicode="&#x12f;" horiz-adv-x="569" d="M-1341 0v1063h284v-1063h-284zM-1341 1202v291h284v-291h-284zM18 -256q0 78 44 147.5t88 100.5l43 31l235 -21q-111 -90 -111 -164q0 -53 43 -53l80 6l29 -227q-127 -25 -217 -25q-102 0 -168 55.5t-66 149.5z" />
<glyph unicode="&#x130;" horiz-adv-x="591" d="M150 0v1470h292v-1470h-292zM154 1655v287h284v-287h-284z" />
<glyph unicode="&#x131;" horiz-adv-x="555" d="M143 0v1063h285v-1063h-285z" />
<glyph unicode="&#x134;" horiz-adv-x="667" d="M-68 1659l279 317h262l279 -317h-320l-88 92l-86 -92h-326zM63 123q162 0 162 137v1210h293q0 -227 1 -612t1 -613.5t-103.5 -311.5t-353.5 -83v273z" />
<glyph unicode="&#x135;" horiz-adv-x="575" d="M-88 1235l281 367h229l280 -367h-305l-88 131l-92 -131h-305zM-72 -291q141 86 181.5 135.5t40.5 167.5v1051h284v-1053q0 -217 -75.5 -320.5t-303.5 -217.5z" />
<glyph unicode="&#x136;" horiz-adv-x="1261" d="M150 0v1470h292v-630l193 20l237 610h340l-315 -731l324 -739h-338l-244 578l-197 -23v-555h-292zM416 -662l98 498h277l-117 -498h-258z" />
<glyph unicode="&#x137;" horiz-adv-x="1101" d="M143 0v1491h285v-834l109 23l211 383h319l-274 -502l288 -561h-321l-217 401l-115 -22v-379h-285zM367 -662l98 498h276l-116 -498h-258z" />
<glyph unicode="&#x139;" horiz-adv-x="1032" d="M150 0v1470h292v-1187h531v-283h-823zM205 1862l547 196l94 -270l-557 -168z" />
<glyph unicode="&#x13a;" horiz-adv-x="569" d="M-35 1905l549 194l92 -270l-555 -166zM143 0v1491h285v-1491h-285z" />
<glyph unicode="&#x13b;" horiz-adv-x="1036" d="M150 0v1470h292v-1187h531v-283h-823zM328 -662l98 498h276l-116 -498h-258z" />
<glyph unicode="&#x13c;" horiz-adv-x="569" d="M47 -662l98 498h277l-117 -498h-258zM143 0v1491h285v-1491h-285z" />
<glyph unicode="&#x13d;" horiz-adv-x="1036" d="M150 0v1470h292v-1187h531v-283h-823zM696 915v555h277v-555h-277z" />
<glyph unicode="&#x13e;" horiz-adv-x="1036" d="M143 0v1491h285v-1491h-285zM608 915v555h279v-555h-279z" />
<glyph unicode="&#x141;" horiz-adv-x="1036" d="M-78 592l228 160v718h292v-514l211 150l140 -193l-351 -243v-387h531v-283h-823v463l-91 -62z" />
<glyph unicode="&#x142;" horiz-adv-x="817" d="M18 582l248 172v737h285v-537l135 95l137 -193l-272 -192v-664h-285v465l-108 -76z" />
<glyph unicode="&#x143;" horiz-adv-x="1492" d="M150 0v1470h460l408 -1099h33v1099h292v-1470h-446l-422 1100h-33v-1100h-292zM426 1862l547 196l94 -270l-555 -168z" />
<glyph unicode="&#x144;" horiz-adv-x="1193" d="M143 0v1063h285v-47q164 72 264 71q213 0 294 -128t81 -404v-555h-285v555q0 137 -29.5 201.5t-119.5 64.5q-33 0 -84 -8t-84 -16l-37 -11v-786h-285zM276 1456l547 197l95 -271l-555 -165z" />
<glyph unicode="&#x145;" horiz-adv-x="1492" d="M150 0v1470h460l408 -1099h33v1099h292v-1470h-446l-422 1100h-33v-1100h-292zM557 -662l98 498h279l-119 -498h-258z" />
<glyph unicode="&#x146;" horiz-adv-x="1193" d="M143 0v1063h285v-47q164 72 264 71q213 0 294 -128t81 -404v-555h-285v555q0 137 -29.5 201.5t-119.5 64.5q-33 0 -84 -8t-84 -16l-37 -11v-786h-285zM403 -662l97 498h278l-119 -498h-256z" />
<glyph unicode="&#x147;" horiz-adv-x="1492" d="M150 0v1470h460l408 -1099h33v1099h292v-1470h-446l-422 1100h-33v-1100h-292zM334 1978h325l89 -98l88 98h319l-281 -315h-256z" />
<glyph unicode="&#x148;" horiz-adv-x="1193" d="M143 0v1063h285v-47q164 72 264 71q213 0 294 -128t81 -404v-555h-285v555q0 137 -29.5 201.5t-119.5 64.5q-33 0 -84 -8t-84 -16l-37 -11v-786h-285zM203 1602h307l88 -127l88 127h307l-278 -367h-238z" />
<glyph unicode="&#x14a;" horiz-adv-x="1492" d="M150 0v1470h460l408 -1099h33v1099h292v-1118v-409q0 -227 -103 -310.5t-351 -83.5v273q162 0 162 135v43h-154l-422 1100h-33v-1100h-292z" />
<glyph unicode="&#x14b;" horiz-adv-x="1193" d="M141 0v1063h285v-47q174 72 274 71q199 0 283 -137t84 -395v-545q0 -223 -71.5 -325.5t-307.5 -212.5l-127 237q145 80 183 128t38 163v555q0 274 -141 274q-33 0 -86 -10t-90 -18l-39 -10v-791h-285z" />
<glyph unicode="&#x14c;" horiz-adv-x="1370" d="M86 725q0 389 136 579.5t464 190.5t464 -190.5t136 -579.5q0 -387 -135 -568.5t-465 -181.5t-465 181.5t-135 568.5zM315 1708v248h740v-248h-740zM387 725q0 -250 63.5 -358.5t235.5 -108.5t234.5 108.5t62.5 358.5q0 252 -63.5 369.5t-233.5 117.5t-234.5 -117.5 t-64.5 -369.5z" />
<glyph unicode="&#x14d;" d="M74 532.5q0 264.5 113.5 409.5t377.5 145t377 -145t113 -409.5t-113 -411t-377 -146.5t-377.5 146.5t-113.5 411zM215 1325v248h696v-248h-696zM365 532.5q0 -155.5 43 -228.5t156.5 -73t156.5 73t43 228.5t-43 227t-156.5 71.5t-156.5 -71.5t-43 -227z" />
<glyph unicode="&#x14e;" horiz-adv-x="1370" d="M86 725q0 389 136 579.5t464 190.5t464 -190.5t136 -579.5q0 -387 -135 -568.5t-465 -181.5t-465 181.5t-135 568.5zM289 1980h297q16 -82 100 -82q88 0 102 82h295q-16 -145 -115.5 -233t-282.5 -88t-280.5 88t-115.5 233zM387 725q0 -250 63.5 -358.5t235.5 -108.5 t234.5 108.5t62.5 358.5q0 252 -63.5 369.5t-233.5 117.5t-234.5 -117.5t-64.5 -369.5z" />
<glyph unicode="&#x14f;" d="M74 532.5q0 264.5 113.5 409.5t377.5 145t377 -145t113 -409.5t-113 -411t-377 -146.5t-377.5 146.5t-113.5 411zM152 1593h294q16 -94 119 -94q104 0 117 94h295q-16 -160 -119.5 -254t-293 -94t-293 94t-119.5 254zM365 532.5q0 -155.5 43 -228.5t156.5 -73t156.5 73 t43 228.5t-43 227t-156.5 71.5t-156.5 -71.5t-43 -227z" />
<glyph unicode="&#x150;" horiz-adv-x="1370" d="M86 725q0 389 136 579.5t464 190.5t464 -190.5t136 -579.5q0 -387 -135 -568.5t-465 -181.5t-465 181.5t-135 568.5zM305 1673l141 420l269 -94l-166 -408zM387 725q0 -250 63.5 -358.5t235.5 -108.5t234.5 108.5t62.5 358.5q0 252 -63.5 369.5t-233.5 117.5 t-234.5 -117.5t-64.5 -369.5zM768 1671l143 420l269 -96l-166 -406z" />
<glyph unicode="&#x151;" d="M74 532.5q0 264.5 113.5 409.5t377.5 145t377 -145t113 -409.5t-113 -411t-377 -146.5t-377.5 146.5t-113.5 411zM106 1337l250 404l232 -142l-266 -399zM365 532.5q0 -155.5 43 -228.5t156.5 -73t156.5 73t43 228.5t-43 227t-156.5 71.5t-156.5 -71.5t-43 -227z M541 1337l250 406l231 -144l-266 -399z" />
<glyph unicode="&#x152;" horiz-adv-x="2009" d="M127 735q0 418 125 589t430 171q92 0 248 -25h934v-282h-643v-303h516v-281h-516v-323h643v-281h-928q-162 -25 -254 -25q-322 0 -438.5 177t-116.5 583zM430 735q0 -279 58.5 -375t244.5 -96q53 0 197 12v916q-147 14 -205 14q-119 0 -179.5 -38t-88 -139t-27.5 -294z " />
<glyph unicode="&#x153;" horiz-adv-x="1865" d="M123 532.5q0 264.5 113.5 409.5t377.5 145q223 0 344 -114q119 115 326 114q465 0 465 -479l-23 -198h-624q2 -92 51 -133t164 -41l393 20l4 -221q-244 -59 -442 -60q-217 0 -326 101q-119 -100 -332 -101q-264 0 -377.5 146.5t-113.5 411zM414 532.5q0 -155.5 43 -228.5 t156.5 -73t156.5 73t43 228.5t-43 227t-156.5 71.5t-156.5 -71.5t-43 -227zM1100 629h368q0 113 -42 160t-142 47t-142 -50.5t-42 -156.5z" />
<glyph unicode="&#x154;" horiz-adv-x="1302" d="M150 0v1470h561q264 0 388 -115.5t124 -373.5q0 -285 -213 -418l207 -563h-322l-170 475h-283v-475h-292zM330 1862l547 196l94 -270l-555 -168zM442 754h273q207 0 207 223q0 213 -211 213h-269v-436z" />
<glyph unicode="&#x155;" horiz-adv-x="765" d="M63 1456l547 197l95 -271l-555 -165zM143 0v1063h285v-100q127 94 297 124v-305q-84 -18 -158.5 -39.5t-105.5 -37.5l-33 -15v-690h-285z" />
<glyph unicode="&#x156;" horiz-adv-x="1306" d="M150 0v1470h561q264 0 388 -115.5t124 -373.5q0 -285 -213 -418l207 -563h-322l-170 475h-283v-475h-292zM442 754h273q207 0 207 223q0 213 -211 213h-269v-436zM457 -662l96 498h278l-118 -498h-256z" />
<glyph unicode="&#x157;" horiz-adv-x="765" d="M41 -662l98 498h277l-117 -498h-258zM143 0v1063h285v-100q127 94 297 124v-305q-84 -18 -158.5 -39.5t-105.5 -37.5l-33 -15v-690h-285z" />
<glyph unicode="&#x158;" horiz-adv-x="1302" d="M150 0v1470h561q264 0 388 -115.5t124 -373.5q0 -285 -213 -418l207 -563h-322l-170 475h-283v-475h-292zM242 1980h325l86 -98l88 98h320l-279 -315h-258zM442 754h273q207 0 207 223q0 213 -211 213h-269v-436z" />
<glyph unicode="&#x159;" horiz-adv-x="765" d="M-10 1602h307l88 -127l88 127h307l-278 -367h-238zM143 0v1063h285v-100q127 94 297 124v-305q-84 -18 -158.5 -39.5t-105.5 -37.5l-33 -15v-690h-285z" />
<glyph unicode="&#x15a;" d="M63 1063q0 209 139.5 320.5t385.5 111.5q72 0 184.5 -14.5t185.5 -28.5l76 -14l-22 -262q-301 35 -424 34q-231 0 -232 -143q0 -68 57.5 -106.5t241.5 -96.5q240 -76 325 -166t85 -276q0 -217 -140.5 -332t-375.5 -115q-162 0 -447 60l29 262q264 -37 416 -37 q121 0 174 36t53 120q0 68 -53 107.5t-207 82.5q-250 74 -350.5 172.5t-100.5 284.5zM264 1862l547 196l94 -270l-555 -168z" />
<glyph unicode="&#x15b;" horiz-adv-x="1056" d="M100 741q0 174 116 260t298 86q68 0 171 -13t171 -25l70 -15l-4 -237q-264 35 -387 34q-90 0 -120 -19t-30 -64q0 -37 39 -52.5t162 -36.5q213 -33 292.5 -105.5t79.5 -234.5q0 -344 -430 -344l-409 50l8 241q264 -35 373 -35q98 0 136 19.5t38 62.5q0 37 -33 53.5 t-141 36.5q-221 37 -310.5 105.5t-89.5 232.5zM209 1456l547 197l94 -271l-555 -165z" />
<glyph unicode="&#x15c;" d="M63 1063q0 209 139.5 320.5t385.5 111.5q72 0 184.5 -14.5t185.5 -28.5l76 -14l-22 -262q-301 35 -424 34q-231 0 -232 -143q0 -68 57.5 -106.5t241.5 -96.5q240 -76 325 -166t85 -276q0 -217 -140.5 -332t-375.5 -115q-162 0 -447 60l29 262q264 -37 416 -37 q121 0 174 36t53 120q0 68 -53 107.5t-207 82.5q-250 74 -350.5 172.5t-100.5 284.5zM174 1671l281 318h260l280 -318h-319l-88 92l-88 -92h-326z" />
<glyph unicode="&#x15d;" horiz-adv-x="1056" d="M100 741q0 174 116 260t298 86q68 0 171 -13t171 -25l70 -15l-4 -237q-264 35 -387 34q-90 0 -120 -19t-30 -64q0 -37 39 -52.5t162 -36.5q213 -33 292.5 -105.5t79.5 -234.5q0 -344 -430 -344l-409 50l8 241q264 -35 373 -35q98 0 136 19.5t38 62.5q0 37 -33 53.5 t-141 36.5q-221 37 -310.5 105.5t-89.5 232.5zM135 1235l279 367h229l281 -367h-303l-91 131l-92 -131h-303z" />
<glyph unicode="&#x15e;" d="M63 1063q0 209 139.5 320.5t385.5 111.5q72 0 184.5 -14.5t185.5 -28.5l76 -14l-22 -262q-301 35 -424 34q-231 0 -232 -143q0 -68 57.5 -106.5t241.5 -96.5q240 -76 325 -166t85 -276q0 -195 -112.5 -307.5t-305.5 -132.5v-60q137 -4 199.5 -42t62.5 -150 q0 -121 -61.5 -182.5t-173.5 -61.5q-41 0 -91.5 6t-80.5 12l-27 7l8 165q66 -2 103 -2q82 0 82 56q0 47 -82 47h-51v198q-72 2 -180.5 16.5t-180.5 28.5l-72 15l29 262q264 -37 416 -37q121 0 174 36t53 120q0 68 -53 107.5t-207 82.5q-250 74 -350.5 172.5t-100.5 284.5z " />
<glyph unicode="&#x15f;" horiz-adv-x="1056" d="M100 741q0 174 116 260t298 86q68 0 171 -13t171 -25l70 -15l-4 -237q-264 35 -387 34q-90 0 -120 -19t-30 -64q0 -37 39 -52.5t162 -36.5q213 -33 292.5 -105.5t79.5 -234.5q0 -330 -387 -342v-55q135 -4 199 -42t64 -150q0 -121 -62.5 -182.5t-175.5 -61.5q-41 0 -90 6 t-80 12l-29 7l11 165q66 -2 102 -2q80 0 80 56q0 47 -80 47h-51v203q-70 4 -154 15t-135 21l-51 9l8 241q264 -35 373 -35q98 0 136 19.5t38 62.5q0 37 -33 53.5t-141 36.5q-221 37 -310.5 105.5t-89.5 232.5z" />
<glyph unicode="&#x160;" d="M63 1063q0 209 139.5 320.5t385.5 111.5q72 0 184.5 -14.5t185.5 -28.5l76 -14l-22 -262q-301 35 -424 34q-231 0 -232 -143q0 -68 57.5 -106.5t241.5 -96.5q240 -76 325 -166t85 -276q0 -217 -140.5 -332t-375.5 -115q-162 0 -447 60l29 262q264 -37 416 -37 q121 0 174 36t53 120q0 68 -53 107.5t-207 82.5q-250 74 -350.5 172.5t-100.5 284.5zM178 1980h326l88 -98l88 98h319l-278 -315h-258z" />
<glyph unicode="&#x161;" horiz-adv-x="1056" d="M100 741q0 174 116 260t298 86q68 0 171 -13t171 -25l70 -15l-4 -237q-264 35 -387 34q-90 0 -120 -19t-30 -64q0 -37 39 -52.5t162 -36.5q213 -33 292.5 -105.5t79.5 -234.5q0 -344 -430 -344l-409 50l8 241q264 -35 373 -35q98 0 136 19.5t38 62.5q0 37 -33 53.5 t-141 36.5q-221 37 -310.5 105.5t-89.5 232.5zM158 1602h307l88 -127l88 127h307l-276 -367h-240z" />
<glyph unicode="&#x162;" horiz-adv-x="1021" d="M-20 1186v284h1064v-284h-385v-1186h-292v1186h-387zM324 -662l98 498h276l-116 -498h-258z" />
<glyph unicode="&#x163;" horiz-adv-x="759" d="M33 805v258h125v299h284v-299h263v-258h-263v-402q0 -66 3.5 -92t23.5 -44.5t63 -18.5l162 4l13 -246q-141 -31 -218 -31q-190 0 -260.5 86t-70.5 318v426h-125zM182 -662l99 498h276l-117 -498h-258z" />
<glyph unicode="&#x164;" horiz-adv-x="1021" d="M-20 1186v284h1064v-284h-385v-1186h-292v1186h-387zM100 1980h326l88 -98l86 98h320l-279 -315h-258z" />
<glyph unicode="&#x165;" horiz-adv-x="1079" d="M33 805v258h125v299h284v-299h263v-258h-263v-402q0 -66 3.5 -92t23.5 -44.5t63 -18.5l162 4l13 -246q-141 -31 -218 -31q-190 0 -260.5 86t-70.5 318v426h-125zM782 915v555h277v-555h-277z" />
<glyph unicode="&#x166;" horiz-adv-x="1021" d="M-20 1186v284h1064v-284h-385v-400h297v-247h-297v-539h-292v539h-281v247h281v400h-387z" />
<glyph unicode="&#x167;" horiz-adv-x="759" d="M33 805v258h125v299h284v-299h263v-258h-263v-146h-284v146h-125zM55 414v245h103v-245h-103zM158 379v35h284v-11q0 -66 3.5 -92t23.5 -44.5t63 -18.5l162 4l13 -246q-141 -31 -218 -31q-190 0 -260.5 86.5t-70.5 317.5zM442 414v245h242v-245h-242z" />
<glyph unicode="&#x168;" horiz-adv-x="1374" d="M127 489v981h295v-981q0 -121 66.5 -171t191.5 -50q258 0 258 221v981h293v-981q0 -266 -137.5 -386.5t-414 -120.5t-414.5 120.5t-138 386.5zM256 1874q12 14 34.5 36.5t82 61.5t110.5 39q74 0 204 -46t153 -46q55 0 174 84l61 -217q-12 -16 -34.5 -39t-82 -59.5 t-110.5 -36.5q-59 0 -194.5 47t-166.5 47q-25 0 -67.5 -21.5t-71.5 -42.5l-31 -22z" />
<glyph unicode="&#x169;" horiz-adv-x="1193" d="M127 508v555h287v-555q0 -164 24.5 -220.5t124.5 -56.5q31 0 82 10.5l88 18.5l33 8v795h287v-1063h-287v45q-166 -70 -264 -70q-223 0 -299 121t-76 412zM193 1468q12 14 34.5 37t82 61t110.5 38q74 0 182.5 -46.5t130.5 -46.5q55 0 174 84l62 -215q-12 -14 -35 -36.5 t-82 -60.5t-111 -38q-59 0 -172.5 47t-144.5 47q-27 0 -69 -21.5t-72 -41.5l-29 -21z" />
<glyph unicode="&#x16a;" horiz-adv-x="1374" d="M127 489v981h295v-981q0 -121 66.5 -171t191.5 -50q258 0 258 221v981h293v-981q0 -266 -137.5 -386.5t-414 -120.5t-414.5 120.5t-138 386.5zM317 1708v248h740v-248h-740z" />
<glyph unicode="&#x16b;" horiz-adv-x="1193" d="M127 508v555h287v-555q0 -164 24.5 -220.5t124.5 -56.5q31 0 82 10.5l88 18.5l33 8v795h287v-1063h-287v45q-166 -70 -264 -70q-223 0 -299 121t-76 412zM250 1325v248h696v-248h-696z" />
<glyph unicode="&#x16c;" horiz-adv-x="1374" d="M127 489v981h295v-981q0 -121 66.5 -171t191.5 -50q258 0 258 221v981h293v-981q0 -266 -137.5 -386.5t-414 -120.5t-414.5 120.5t-138 386.5zM291 1980h297q16 -82 100 -82q88 0 103 82h294q-16 -145 -115.5 -233t-282.5 -88t-280.5 88t-115.5 233z" />
<glyph unicode="&#x16d;" horiz-adv-x="1193" d="M127 508v555h287v-555q0 -164 24.5 -220.5t124.5 -56.5q31 0 82 10.5l88 18.5l33 8v795h287v-1063h-287v45q-166 -70 -264 -70q-223 0 -299 121t-76 412zM182 1593h297q14 -94 117 -94q104 0 117 94h297q-16 -160 -120 -254t-293 -94t-293 94t-122 254z" />
<glyph unicode="&#x16e;" horiz-adv-x="1374" d="M127 489v981h295v-981q0 -121 66.5 -171t191.5 -50q258 0 258 221v981h293v-981q0 -266 -137.5 -386.5t-414 -120.5t-414.5 120.5t-138 386.5zM369 1787q0 126 91 197.5t227 71.5t228.5 -71.5t92.5 -197.5t-92.5 -196.5t-228.5 -70.5t-227 70.5t-91 196.5zM588 1787 q0 -32 26.5 -51.5t73.5 -19.5t73.5 19.5t26.5 51.5t-26.5 51.5t-73.5 19.5t-73.5 -19.5t-26.5 -51.5z" />
<glyph unicode="&#x16f;" horiz-adv-x="1193" d="M127 508v555h287v-555q0 -164 24.5 -220.5t124.5 -56.5q31 0 82 10.5l88 18.5l33 8v795h287v-1063h-287v45q-166 -70 -264 -70q-223 0 -299 121t-76 412zM348 1360q0 102 70.5 175t177.5 73q104 0 177 -73t73 -175q0 -106 -73 -178t-177 -72q-106 0 -177 72t-71 178z M532 1360q0 -31 19.5 -49.5t47.5 -18.5t45.5 19.5t17.5 47t-17.5 46t-45.5 18.5t-47.5 -18t-19.5 -45z" />
<glyph unicode="&#x170;" horiz-adv-x="1374" d="M127 489v981h295v-981q0 -121 66.5 -171t191.5 -50q258 0 258 221v981h293v-981q0 -266 -137.5 -386.5t-414 -120.5t-414.5 120.5t-138 386.5zM287 1673l143 420l268 -94l-166 -408zM752 1671l143 420l268 -96l-166 -406z" />
<glyph unicode="&#x171;" horiz-adv-x="1193" d="M127 508v555h287v-555q0 -164 24.5 -220.5t124.5 -56.5q31 0 82 10.5l88 18.5l33 8v795h287v-1063h-287v45q-166 -70 -264 -70q-223 0 -299 121t-76 412zM211 1337l250 404l231 -142l-266 -399zM645 1337l250 406l231 -144l-266 -399z" />
<glyph unicode="&#x172;" horiz-adv-x="1374" d="M127 489v981h295v-981q0 -121 66.5 -171t191.5 -50q258 0 258 221v981h293v-981q0 -406 -338 -487h12q-111 -90 -110 -164q0 -53 43 -53l80 6l28 -227q-127 -25 -217 -25q-102 0 -167.5 55.5t-65.5 149.5q0 131 120 240q-246 12 -367.5 132.5t-121.5 372.5z" />
<glyph unicode="&#x173;" horiz-adv-x="1193" d="M127 508v555h287v-555q0 -164 24.5 -220.5t124.5 -56.5q31 0 82 10.5l88 18.5l33 8v795h287v-1063h-13l4 2l-237 21q-12 -8 -31 -23h-10v45q-166 -70 -264 -70q-223 0 -299 121t-76 412zM635 -256q0 145 141 256h264q-106 -90 -106 -162q0 -53 41 -53l82 6l26 -227 q-125 -25 -217 -25q-102 0 -166.5 55.5t-64.5 149.5z" />
<glyph unicode="&#x174;" horiz-adv-x="2002" d="M51 1470h309l222 -1167h32l222 1167h333l222 -1167h32l222 1167h309l-328 -1470h-438l-187 1036l-186 -1036h-436zM590 1671l278 318h262l279 -318h-319l-86 92l-89 -92h-325z" />
<glyph unicode="&#x175;" horiz-adv-x="1597" d="M25 1063h282l129 -805h51l162 786h299l162 -786h51l129 805h283l-199 -1063h-459l-118 651l-121 -651h-453zM406 1235l278 367h229l281 -367h-303l-90 131l-92 -131h-303z" />
<glyph unicode="&#x176;" horiz-adv-x="1214" d="M20 1470h328l260 -514l260 514h326l-436 -843v-627h-293v629zM197 1671l278 318h262l279 -318h-320l-88 92l-86 -92h-325z" />
<glyph unicode="&#x177;" horiz-adv-x="1032" d="M16 1063h283l193 -784h49l194 784h281l-373 -1507h-281l109 444h-192zM121 1235l280 367h230l280 -367h-305l-88 131l-92 -131h-305z" />
<glyph unicode="&#x178;" horiz-adv-x="1214" d="M20 1470h328l260 -514l260 514h326l-436 -843v-627h-293v629zM246 1692v280h272v-280h-272zM717 1692v280h274v-280h-274z" />
<glyph unicode="&#x179;" horiz-adv-x="1212" d="M127 0v283l582 872v31h-582v284h958v-284l-581 -871v-32h581v-283h-958zM285 1862l549 196l92 -270l-555 -168z" />
<glyph unicode="&#x17a;" horiz-adv-x="1015" d="M113 0v258l448 549h-448v258h790v-258l-446 -549h446v-258h-790zM166 1456l547 197l94 -271l-555 -165z" />
<glyph unicode="&#x17b;" horiz-adv-x="1212" d="M127 0v283l582 872v31h-582v284h958v-284l-581 -871v-32h581v-283h-958zM465 1655v287h285v-287h-285z" />
<glyph unicode="&#x17c;" horiz-adv-x="1015" d="M113 0v258l448 549h-448v258h790v-258l-446 -549h446v-258h-790zM365 1184v289h284v-289h-284z" />
<glyph unicode="&#x17d;" horiz-adv-x="1212" d="M127 0v283l582 872v31h-582v284h958v-284l-581 -871v-32h581v-283h-958zM221 1980h326l88 -98l88 98h319l-280 -315h-258z" />
<glyph unicode="&#x17e;" horiz-adv-x="1015" d="M96 1602h307l89 -127l88 127h307l-279 -367h-237zM113 0v258l448 549h-448v258h790v-258l-446 -549h446v-258h-790z" />
<glyph unicode="&#x192;" d="M150 -274l38 -2q35 0 83 -2.5t73 -2.5q111 0 111 140v946h-117v258h117v49q0 229 66.5 314t242.5 85q41 0 94 -6q14 -2 30.5 -4t31.5 -4l27 -4q13 -2 23 -3l18 -2q9 -1 13 -1l3 -2v-232q-94 4 -162 4q-59 0 -81 -33.5t-22 -113.5v-47h258v-258h-258v-946 q0 -213 -100 -297t-295 -84q-33 0 -82 7t-82 15l-30 6v220z" />
<glyph unicode="&#x1fa;" horiz-adv-x="1288" d="M43 0l313 1415q-29 55 -28 121q0 125 92 196.5t228 71.5t227.5 -71.5t91.5 -196.5q0 -68 -29 -121l307 -1415h-293l-65 248h-496l-55 -248h-293zM303 2075l547 196l94 -270l-557 -168zM455 530h376l-139 670h-96zM547 1536q0 -53 61 -66h78q61 12 62 66q0 31 -27 50.5 t-74 19.5t-73.5 -19.5t-26.5 -50.5z" />
<glyph unicode="&#x1fb;" horiz-adv-x="1124" d="M86 324q0 170 90 242.5t281 84.5l229 17v53q0 41 -29.5 67.5t-76.5 26.5l-414 -16l-8 243q166 27 313 39q-74 27 -117 89.5t-43 146.5q0 104 72 176t178 72q102 0 175 -72t73 -176q0 -80 -42 -142.5t-112 -91.5q158 -10 237 -96t79 -264v-395q0 -61 13 -82t56 -29 l-10 -242q-127 0 -184.5 15.5t-116.5 56.5q-180 -72 -326 -72q-156 0 -236.5 92.5t-80.5 256.5zM242 1884l546 197l95 -271l-557 -165zM373 332q0 -113 88 -113q37 0 93 7t93 18l39 8v197l-194 -9q-119 -6 -119 -108zM496 1317q0 -31 18 -49.5t49 -18.5q27 0 45.5 19.5 t18.5 47t-18.5 46t-46 18.5t-47 -18t-19.5 -45z" />
<glyph unicode="&#x1fc;" horiz-adv-x="1724" d="M102 0l392 1470h1351v-282h-643v-303h514v-281h-514v-323h643v-281h-934v248h-452l-64 -248h-293zM530 530h381l2 658h-213zM541 1862l546 196l95 -270l-555 -168z" />
<glyph unicode="&#x1fd;" horiz-adv-x="1763" d="M111 324q0 170 93 243.5t277 83.5l230 17v53q0 41 -30 67.5t-77 26.5q-70 0 -173 -5t-171 -11l-67 -6l-11 249q285 45 441 45q182 0 274 -77q111 78 283 77q465 0 465 -479l-23 -198h-625q2 -92 51.5 -133t163.5 -41l394 20l4 -221q-244 -59 -443 -60q-217 0 -325 101 l-49 -23q-178 -78 -365 -78q-156 0 -236.5 92.5t-80.5 256.5zM397 332q0 -113 88 -113q39 0 95.5 7t93.5 18l37 8q0 33 -1 99.5t-1 97.5l-191 -9q-121 -6 -121 -108zM582 1456l546 197l95 -271l-555 -165zM997 629h367q0 113 -42 160t-142 47q-102 0 -142.5 -49t-40.5 -158z " />
<glyph unicode="&#x1fe;" horiz-adv-x="1396" d="M86 725q0 389 136 579.5t464 190.5q100 0 197 -20l121 260l266 -99l-144 -305q160 -180 160 -606q0 -387 -135 -568.5t-465 -181.5q-98 0 -184 17l-123 -266l-258 116l131 279q-166 168 -166 604zM338 1862l549 196l92 -270l-555 -168zM387 725q0 -168 25 -260l344 741 q-31 6 -70 6q-170 0 -234.5 -117.5t-64.5 -369.5zM629 260q16 -2 57 -2q172 0 234.5 108.5t62.5 358.5q0 152 -20 252z" />
<glyph unicode="&#x1ff;" d="M74 532q0 264 113.5 409.5t377.5 145.5q59 0 119 -10l84 215l174 -63l-88 -211q201 -125 201 -486q0 -264 -113 -410.5t-377 -146.5q-76 0 -135 13l-88 -217l-170 63l90 217q-188 127 -188 481zM244 1456l547 197l94 -271l-557 -165zM365 532q0 -129 24 -196l197 493 q-2 0 -10.5 1t-10.5 1q-115 0 -157.5 -71.5t-42.5 -227.5zM526 233q12 -2 39 -2q113 0 156 73t43 228q0 141 -33 207z" />
<glyph unicode="&#x218;" d="M63 1063q0 209 139.5 320.5t385.5 111.5q72 0 184.5 -14.5t185.5 -28.5l76 -14l-22 -262q-301 35 -424 34q-231 0 -232 -143q0 -68 57.5 -106.5t241.5 -96.5q240 -76 325 -166t85 -276q0 -217 -140.5 -332t-375.5 -115q-162 0 -447 60l29 262q264 -37 416 -37 q121 0 174 36t53 120q0 68 -53 107.5t-207 82.5q-250 74 -350.5 172.5t-100.5 284.5zM336 -662l98 498h277l-117 -498h-258z" />
<glyph unicode="&#x219;" horiz-adv-x="1056" d="M100 741q0 174 116 260t298 86q68 0 171 -13t171 -25l70 -15l-4 -237q-264 35 -387 34q-90 0 -120 -19t-30 -64q0 -37 39 -52.5t162 -36.5q213 -33 292.5 -105.5t79.5 -234.5q0 -344 -430 -344l-409 50l8 241q264 -35 373 -35q98 0 136 19.5t38 62.5q0 37 -33 53.5 t-141 36.5q-221 37 -310.5 105.5t-89.5 232.5zM340 -661l98 497h277l-117 -497h-258z" />
<glyph unicode="&#x2c6;" horiz-adv-x="569" d="M-88 1235l281 367h229l280 -367h-305l-88 131l-92 -131h-305z" />
<glyph unicode="&#x2c7;" horiz-adv-x="569" d="M-74 1602h305l91 -127l88 127h305l-277 -367h-237z" />
<glyph unicode="&#x2d8;" horiz-adv-x="569" d="M-106 1593h296q14 -94 117 -94q104 0 117 94h297q-18 -160 -121.5 -254t-293 -94t-293 94t-119.5 254z" />
<glyph unicode="&#x2d9;" horiz-adv-x="569" d="M143 1184v289h285v-289h-285z" />
<glyph unicode="&#x2da;" horiz-adv-x="569" d="M43 1360q0 102 70.5 175t177.5 73q104 0 177 -73t73 -175q0 -106 -73 -178t-177 -72q-106 0 -177 72t-71 178zM227 1360q0 -31 18.5 -49.5t49.5 -18.5q27 0 45 19.5t18 47t-18 46t-46 18.5t-47.5 -18t-19.5 -45z" />
<glyph unicode="&#x2db;" horiz-adv-x="1007" d="M467 -256q0 78 43 147.5t86 100.5l43 31l235 -21q-111 -90 -110 -164q0 -53 43 -53l82 6l26 -227q-125 -25 -217 -25q-102 0 -166.5 55.5t-64.5 149.5z" />
<glyph unicode="&#x2dc;" horiz-adv-x="569" d="M-74 1468q12 14 35 37t82 61t111 38q74 0 182 -46.5t131 -46.5q55 0 174 84l61 -215q-12 -14 -34.5 -36.5t-82 -60.5t-110.5 -38q-59 0 -173 47t-144 47q-27 0 -69 -21.5t-73 -41.5l-28 -21z" />
<glyph unicode="&#x2dd;" horiz-adv-x="569" d="M-106 1337l249 404l232 -142l-266 -399zM328 1337l250 406l231 -144l-266 -399z" />
<glyph unicode="&#x300;" horiz-adv-x="569" d="M12 1397l88 254l547 -197l-78 -223z" />
<glyph unicode="&#x301;" horiz-adv-x="569" d="M-23 1456l547 197l94 -271l-557 -165z" />
<glyph unicode="&#x302;" horiz-adv-x="569" d="M-63 1235l278 367h229l283 -367h-305l-90 131l-90 -131h-305z" />
<glyph unicode="&#x303;" horiz-adv-x="569" d="M-74 1468q12 14 35 37t82 61t111 38q74 0 182 -46.5t131 -46.5q55 0 174 84l61 -215q-12 -14 -34.5 -36.5t-82 -60.5t-110.5 -38q-59 0 -173 47t-144 47q-27 0 -69 -21.5t-73 -41.5l-28 -21z" />
<glyph unicode="&#x304;" horiz-adv-x="569" d="M-53 1325v248h696v-248h-696z" />
<glyph unicode="&#x306;" horiz-adv-x="569" d="M-106 1593h296q14 -94 117 -94q104 0 117 94h297q-18 -160 -121.5 -254t-293 -94t-293 94t-119.5 254z" />
<glyph unicode="&#x307;" horiz-adv-x="569" d="M143 1184v289h285v-289h-285z" />
<glyph unicode="&#x308;" horiz-adv-x="569" d="M-63 1290v283h272v-283h-272zM395 1290v283h275v-283h-275z" />
<glyph unicode="&#x30a;" horiz-adv-x="569" d="M53 1360q0 102 72 175t178 73q104 0 176 -73t72 -175q0 -106 -71.5 -178t-176.5 -72q-106 0 -178 72t-72 178zM238 1360q0 -31 19 -49.5t47 -18.5t46.5 19.5t18.5 47t-18.5 46t-46.5 18.5t-47 -18t-19 -45z" />
<glyph unicode="&#x30b;" horiz-adv-x="569" d="M-106 1337l249 404l232 -142l-266 -399zM328 1337l250 406l231 -144l-266 -399z" />
<glyph unicode="&#x30c;" horiz-adv-x="569" d="M-96 1602h307l90 -127l86 127h307l-276 -367h-240z" />
<glyph unicode="&#x312;" horiz-adv-x="360" d="M-10 1241l116 500h259l-99 -500h-276z" />
<glyph unicode="&#x315;" horiz-adv-x="372" d="M37 915v555h276v-555h-276z" />
<glyph unicode="&#x326;" horiz-adv-x="360" d="M-10 -662l98 498h277l-117 -498h-258z" />
<glyph unicode="&#x327;" horiz-adv-x="1773" d="M776 -489l8 165q66 -2 103 -2q80 0 80 56q0 47 -80 47h-51v225h112v-80q135 -4 198.5 -42t63.5 -150q0 -121 -62.5 -182.5t-174.5 -61.5q-39 0 -89 6t-79 12z" />
<glyph unicode="&#x328;" horiz-adv-x="1007" d="M467 -256q0 78 43 147.5t86 100.5l43 31l235 -21q-111 -90 -110 -164q0 -53 43 -53l82 6l26 -227q-125 -25 -217 -25q-102 0 -166.5 55.5t-64.5 149.5z" />
<glyph unicode="&#x394;" d="M63 0v244l265 1226h479l262 -1232v-238h-1006zM358 264h420l-190 942h-39z" />
<glyph unicode="&#x2206;" d="M63 0v244l265 1226h479l262 -1232v-238h-1006zM358 264h420l-190 942h-39z" />
<glyph unicode="&#x3a9;" d="M59 788q0 342 115 490.5t390.5 148.5t390 -148.5t114.5 -490.5q0 -139 -43 -277t-84 -206l-41 -69h150v-254h-445v233q20 31 48 82t75 190.5t47 257.5q0 219 -43 317.5t-168 98.5q-135 0 -173 -94t-38 -322q0 -119 42 -251t85 -205l41 -74v-233h-444v254h149l-45.5 76.5 t-75 192t-47.5 283.5z" />
<glyph unicode="&#x2126;" d="M59 788q0 342 115 490.5t390.5 148.5t390 -148.5t114.5 -490.5q0 -139 -43 -277t-84 -206l-41 -69h150v-254h-445v233q20 31 48 82t75 190.5t47 257.5q0 219 -43 317.5t-168 98.5q-135 0 -173 -94t-38 -322q0 -119 42 -251t85 -205l41 -74v-233h-444v254h149l-45.5 76.5 t-75 192t-47.5 283.5z" />
<glyph unicode="&#x3c0;" d="M8 788v248q53 12 133 18.5t133 8.5l54 2h460q203 0 308 35v-250q-51 -27 -158 -33v-489q0 -57 29.5 -81t115.5 -24v-243q-143 0 -229 15t-131 60t-59.5 104.5t-14.5 168.5v487h-178l-55 -815h-289l55 815z" />
<glyph unicode="&#x1e80;" horiz-adv-x="2002" d="M51 1470h309l222 -1167h32l222 1167h333l222 -1167h32l222 1167h309l-328 -1470h-438l-187 1036l-186 -1036h-436zM729 1763l92 271l549 -195l-86 -242z" />
<glyph unicode="&#x1e81;" horiz-adv-x="1597" d="M25 1063h282l129 -805h51l162 786h299l162 -786h51l129 805h283l-199 -1063h-459l-118 651l-121 -651h-453zM483 1397l88 254l547 -197l-78 -223z" />
<glyph unicode="&#x1e82;" horiz-adv-x="2002" d="M51 1470h309l222 -1167h32l222 1167h333l222 -1167h32l222 1167h309l-328 -1470h-438l-187 1036l-186 -1036h-436zM682 1862l547 196l94 -270l-557 -168z" />
<glyph unicode="&#x1e83;" horiz-adv-x="1597" d="M25 1063h282l129 -805h51l162 786h299l162 -786h51l129 805h283l-199 -1063h-459l-118 651l-121 -651h-453zM477 1456l547 197l94 -271l-555 -165z" />
<glyph unicode="&#x1e84;" horiz-adv-x="2002" d="M51 1470h309l222 -1167h32l222 1167h333l222 -1167h32l222 1167h309l-328 -1470h-438l-187 1036l-186 -1036h-436zM629 1692v280h272v-280h-272zM1102 1692v280h272v-280h-272z" />
<glyph unicode="&#x1e85;" horiz-adv-x="1597" d="M25 1063h282l129 -805h51l162 786h299l162 -786h51l129 805h283l-199 -1063h-459l-118 651l-121 -651h-453zM432 1290v283h273v-283h-273zM893 1290v283h272v-283h-272z" />
<glyph unicode="&#x1eab;" horiz-adv-x="1124" d="M86 324q0 170 90 242.5t281 84.5l229 17v53q0 41 -29.5 67.5t-76.5 26.5l-414 -16l-8 243q283 45 438 45q188 0 281.5 -83.5t93.5 -280.5v-395q0 -61 13 -82t56 -29l-10 -242q-127 0 -184.5 15.5t-116.5 56.5q-180 -72 -326 -72q-156 0 -236.5 92.5t-80.5 256.5z M125 1808l36 37q22 23 82 62t111 39q74 0 182.5 -46.5t131.5 -46.5q55 0 174 82l61 -215q-12 -14 -34.5 -36.5t-82 -59.5t-110.5 -37q-59 0 -174 47t-144 47q-27 0 -68.5 -21.5t-72.5 -43.5l-29 -21zM127 1171l281 367h229l281 -367h-304l-90 129l-92 -129h-305zM373 332 q0 -113 88 -113q37 0 93 7t93 18l39 8v197l-194 -9q-119 -6 -119 -108z" />
<glyph unicode="&#x1eb0;" horiz-adv-x="1288" d="M43 0l326 1470h557l319 -1470h-293l-65 248h-496l-55 -248h-293zM223 2167l88 252l547 -195l-78 -223zM258 1896h295q18 -84 100 -84q88 0 103 84h297q-18 -145 -116.5 -233t-282 -88t-282 88t-114.5 233zM455 530h376l-139 670h-96z" />
<glyph unicode="&#x1ec5;" horiz-adv-x="1079" d="M74 518q0 569 471 569q465 0 465 -479l-21 -198h-627q2 -92 51.5 -133t164.5 -41l393 20l4 -221q-244 -59 -443 -60q-242 0 -350 127t-108 416zM145 1808q12 14 35 37t82.5 62t110.5 39q74 0 182.5 -46.5t130.5 -46.5q55 0 174 82l62 -215q-12 -14 -35 -36.5t-82.5 -59.5 t-110.5 -37q-59 0 -172.5 47t-144.5 47q-25 0 -68 -21.5t-73 -43.5l-29 -21zM162 1171l278 367h232l280 -367h-305l-90 129l-90 -129h-305zM360 629h369q0 113 -42 160t-142.5 47t-141.5 -49t-43 -158z" />
<glyph unicode="&#x1ed7;" d="M74 532.5q0 264.5 113.5 409.5t377.5 145t377 -145t113 -409.5t-113 -411t-377 -146.5t-377.5 146.5t-113.5 411zM147 1808q12 14 35 37t82.5 62t110.5 39q74 0 183.5 -46.5t129.5 -46.5q55 0 174 82l62 -215q-12 -14 -35 -36.5t-82 -59.5t-111 -37q-59 0 -172.5 47 t-144.5 47q-25 0 -68 -21.5t-73 -43.5l-29 -21zM170 1171l279 367h231l281 -367h-306l-88 129l-92 -129h-305zM365 532.5q0 -155.5 43 -228.5t156.5 -73t156.5 73t43 228.5t-43 227t-156.5 71.5t-156.5 -71.5t-43 -227z" />
<glyph unicode="&#x1ef2;" horiz-adv-x="1214" d="M20 1470h328l260 -514l260 514h326l-436 -843v-627h-293v629zM334 1763l94 271l547 -195l-84 -242z" />
<glyph unicode="&#x1ef3;" horiz-adv-x="1032" d="M16 1063h283l193 -784h49l194 784h281l-373 -1507h-281l109 444h-192zM203 1397l86 254l549 -197l-80 -223z" />
<glyph unicode="&#x1ef8;" horiz-adv-x="1214" d="M20 1470h328l260 -514l260 514h326l-436 -843v-627h-293v629zM213 1874q12 14 34.5 36.5t82 61.5t110.5 39q76 0 184.5 -46t129.5 -46q55 0 174 84l63 -215l-35.5 -39t-82 -59.5t-111.5 -36.5q-59 0 -173 47t-145 47q-25 0 -67.5 -21.5t-71.5 -42.5l-31 -22z" />
<glyph unicode="&#x1ef9;" horiz-adv-x="1032" d="M16 1063h283l193 -784h49l194 784h281l-373 -1507h-281l109 444h-192zM121 1468l36 37q22 23 82 61t111 38q74 0 182.5 -46.5t129.5 -46.5q55 0 176 84l61 -215q-12 -14 -34.5 -36.5t-82 -60.5t-110.5 -38q-61 0 -175 47t-143 47q-27 0 -68.5 -21.5t-72.5 -41.5l-31 -21z " />
<glyph unicode="&#x2000;" horiz-adv-x="1208" />
<glyph unicode="&#x2001;" horiz-adv-x="2418" />
<glyph unicode="&#x2002;" horiz-adv-x="1208" />
<glyph unicode="&#x2003;" horiz-adv-x="2418" />
<glyph unicode="&#x2004;" horiz-adv-x="804" />
<glyph unicode="&#x2005;" horiz-adv-x="604" />
<glyph unicode="&#x2006;" horiz-adv-x="401" />
<glyph unicode="&#x2007;" horiz-adv-x="401" />
<glyph unicode="&#x2008;" horiz-adv-x="301" />
<glyph unicode="&#x2009;" horiz-adv-x="483" />
<glyph unicode="&#x200a;" horiz-adv-x="133" />
<glyph unicode="&#x2010;" horiz-adv-x="935" d="M150 459v280h638v-280h-638z" />
<glyph unicode="&#x2011;" horiz-adv-x="935" d="M150 459v280h638v-280h-638z" />
<glyph unicode="&#x2012;" horiz-adv-x="935" d="M150 459v280h638v-280h-638z" />
<glyph unicode="&#x2013;" horiz-adv-x="1064" d="M0 455v258h1065v-258h-1065z" />
<glyph unicode="&#x2014;" horiz-adv-x="2129" d="M0 455v258h2130v-258h-2130z" />
<glyph unicode="&#x2018;" horiz-adv-x="360" d="M-47 1022l123 526h276l-106 -526h-293z" />
<glyph unicode="&#x2019;" horiz-adv-x="360" d="M8 1122l107 527h291l-123 -527h-275z" />
<glyph unicode="&#x201a;" horiz-adv-x="475" d="M-6 -276l123 526h274l-106 -526h-291z" />
<glyph unicode="&#x201c;" d="M193 1022l122 526h275l-107 -526h-290zM545 1022l125 526h274l-106 -526h-293z" />
<glyph unicode="&#x201d;" d="M193 1012l106 526h289l-123 -526h-272zM561 1012l107 526h290l-122 -526h-275z" />
<glyph unicode="&#x201e;" horiz-adv-x="989" d="M-6 -276l123 526h274l-106 -526h-291zM465 -276l123 526h274l-106 -526h-291z" />
<glyph unicode="&#x2020;" d="M113 778v281h311v366h281v-366h311v-281h-311v-930h-281v930h-311z" />
<glyph unicode="&#x2021;" d="M113 215v281h311v282h-311v281h311v366h281v-366h309v-281h-309v-282h311v-281h-311v-367h-281v367h-311z" />
<glyph unicode="&#x2022;" d="M309 213v596h510v-596h-510z" />
<glyph unicode="&#x2026;" horiz-adv-x="1583" d="M115 0v354h307v-354h-307zM657 0v354h308v-354h-308zM1202 0v354h305v-354h-305z" />
<glyph unicode="&#x202f;" horiz-adv-x="483" />
<glyph unicode="&#x2030;" horiz-adv-x="1773" d="M12 1184q0 309 256 309t256 -309q0 -311 -256 -311t-256 311zM221 1185q0 -77 10.5 -109t38 -32t36.5 32t9 109t-9 107.5t-36.5 30.5t-38 -30.5t-10.5 -107.5zM285 -4l409 1538l183 -49l-408 -1536zM635 311q0 309 256 309.5t256 -309.5q0 -311 -256 -311t-256 311z M844 310q0 -77 9 -108.5t37 -31.5t38 31.5t10 108.5t-10 108t-38 31t-37 -31t-9 -108zM1182 311q0 309 256 309.5t256 -309.5q0 -311 -256 -311t-256 311zM1391 310q0 -77 9 -108.5t37.5 -31.5t38 31.5t9.5 108.5t-9.5 108t-38 31t-37.5 -31t-9 -108z" />
<glyph unicode="&#x2039;" horiz-adv-x="858" d="M193 414v204l475 349v-287l-234 -160l234 -184v-287z" />
<glyph unicode="&#x203a;" horiz-adv-x="858" d="M193 70v288l231 183l-231 159v289l475 -350v-205z" />
<glyph unicode="&#x205f;" horiz-adv-x="604" />
<glyph unicode="&#x2070;" horiz-adv-x="563" d="M10 1346q0 199 67.5 279.5t208 80.5t208 -81t67.5 -279q0 -195 -66.5 -273t-209 -78t-209 78t-66.5 273zM246 1346.5q0 -68.5 5 -101.5t12 -41t22 -8q25 0 33 25.5t8 124.5q0 100 -8.5 128.5t-32.5 28.5q-14 0 -22.5 -9t-12.5 -44t-4 -103.5z" />
<glyph unicode="&#x2074;" horiz-adv-x="563" d="M20 1094v186l84 403h252l-110 -389h57l29 193h194v-193h23v-200h-23v-76h-223v76h-283z" />
<glyph unicode="&#x2075;" horiz-adv-x="563" d="M39 1032l16 182q119 -20 199 -20q53 0 53 33q0 35 -31 35l-55 -9l-166 23l23 407h442v-192h-264l-6 -53q59 12 92 12q199 0 199 -211q0 -236 -252 -235q-47 0 -110.5 7t-102.5 15z" />
<glyph unicode="&#x2076;" horiz-adv-x="563" d="M18 1325q0 188 66 284.5t227 96.5q33 0 89.5 -6t93.5 -12l38 -7l-12 -186q-141 12 -201 12q-70 0 -69 -55l12 2q12 2 33.5 5t34.5 3q115 0 168 -55t53 -168q0 -115 -70.5 -179.5t-181.5 -64.5q-281 0 -281 330zM250 1264q0 -74 37 -74t37 45t-35 45q-10 0 -20.5 -4 t-14.5 -8z" />
<glyph unicode="&#x2077;" horiz-adv-x="563" d="M45 1458v225h483v-215l-202 -471l-258 39l194 396v26h-217z" />
<glyph unicode="&#x2078;" horiz-adv-x="563" d="M10 1219q0 94 68 147q-57 41 -58 150q0 190 263 190q264 0 264 -193q0 -94 -58 -149q6 -4 18.5 -14.5t30 -47t17.5 -83.5q0 -121 -67.5 -172.5t-205 -51.5t-205 51.5t-67.5 172.5zM244 1223q0 -47 40 -47t40 47q0 27 -25 53h-31q-24 -26 -24 -53zM246 1485q0 -27 22 -53 h31q23 27 23 53q0 41 -38 41t-38 -41z" />
<glyph unicode="&#x2079;" horiz-adv-x="563" d="M18 1458q0 119 69 183.5t185 64.5q279 0 279 -352q0 -184 -63.5 -271.5t-215.5 -87.5q-45 0 -102 7.5t-94 15.5l-33 6l12 186q104 -14 187 -14q70 0 69 49l-10 -2q-12 -2 -30.5 -4t-34.5 -2q-218 0 -218 221zM248 1458q0 -45 33 -45l41 12q0 82 -41 82q-33 0 -33 -49z " />
<glyph unicode="&#x2080;" horiz-adv-x="563" d="M10 328q0 199 67.5 279.5t208 80.5t208 -81t67.5 -279q0 -197 -66.5 -274t-209 -77t-209 77t-66.5 274zM246 327.5q0 -67.5 5 -100t12 -41t22 -8.5q25 0 33 25.5t8 124.5q0 100 -8.5 128.5t-32.5 28.5q-14 0 -22.5 -9t-12.5 -45t-4 -103.5z" />
<glyph unicode="&#x2081;" horiz-adv-x="563" d="M35 504l225 160h205v-664h-227v416l-99 -68z" />
<glyph unicode="&#x2082;" horiz-adv-x="563" d="M31 0v193l153 124q98 78 99 121q0 33 -78 33l-162 -12l-8 211q156 18 250 18q131 0 184 -49t53 -164q0 -70 -27.5 -118t-91.5 -95l-81 -59h200v-203h-491z" />
<glyph unicode="&#x2083;" horiz-adv-x="563" d="M43 -6l12 199q129 -14 201 -15q61 0 61 35q0 31 -55 31h-141v180h137q43 0 43 30.5t-57 30.5l-181 -10l-12 195q145 18 230 18q258 0 258 -190q0 -113 -62 -148q74 -33 74 -155q0 -109 -65.5 -163.5t-184.5 -54.5z" />
<glyph unicode="&#x2084;" horiz-adv-x="563" d="M20 74v188l84 402h252l-110 -388h57l29 193h194v-193h23v-202h-23v-74h-223v74h-283z" />
<glyph unicode="&#x2085;" horiz-adv-x="563" d="M39 14l16 183q119 -20 199 -21q53 0 53 33q0 35 -31 35l-55 -11l-166 25l23 406h442v-191h-264l-6 -53q59 12 92 12q199 0 199 -211q0 -236 -252 -235q-47 0 -110.5 7t-102.5 15z" />
<glyph unicode="&#x2086;" horiz-adv-x="563" d="M18 307q0 188 66 284.5t227 96.5q33 0 89.5 -6t93.5 -12l38 -8l-12 -185q-141 12 -201 12q-70 0 -69 -55l12 2q12 2 33.5 5t34.5 3q115 0 168 -55t53 -168q0 -115 -70.5 -179.5t-181.5 -64.5q-281 0 -281 330zM250 246q0 -74 37 -74t37 45t-35 45q-10 0 -20.5 -4 t-14.5 -8z" />
<glyph unicode="&#x2087;" horiz-adv-x="563" d="M45 440v224h483v-215l-202 -469l-258 38l194 396v26h-217z" />
<glyph unicode="&#x2088;" horiz-adv-x="563" d="M10 201q0 94 68 147q-57 41 -58 150q0 190 263 190q264 0 264 -192q0 -94 -58 -152q6 -4 18.5 -13t30 -46t17.5 -84q0 -123 -67.5 -173.5t-205 -50.5t-205 50.5t-67.5 173.5zM244 205q0 -47 40 -47t40 47q0 27 -25 53h-31q-24 -26 -24 -53zM246 467q0 -27 22 -53h31 q23 27 23 53q0 41 -38 41t-38 -41z" />
<glyph unicode="&#x2089;" horiz-adv-x="563" d="M18 440q0 117 69 182.5t185 65.5q279 0 279 -352q0 -184 -63.5 -271.5t-215.5 -87.5q-45 0 -102 7.5t-94 15.5l-33 6l12 187q104 -14 187 -15q70 0 69 49l-10 -2q-12 -2 -30.5 -4t-34.5 -2q-218 0 -218 221zM248 440q0 -47 33 -47l41 15q0 82 -41 81q-33 0 -33 -49z" />
<glyph unicode="&#x20ac;" horiz-adv-x="1261" d="M145 406v221h113v135h-113v221h127q33 248 151 348.5t368 100.5q80 0 175 -11.5t150 -19.5l55 -10l-8 -258q-215 8 -329 8q-121 0 -176.5 -32t-77.5 -128h444v-219h-463v-135h463v-221h-442q23 -84 81 -113t179 -29l321 10l6 -264q-211 -35 -378 -35q-256 0 -371 99.5 t-148 331.5h-127z" />
<glyph unicode="&#x2122;" d="M14 1204v168h426v-168h-86v-497h-188v497h-152zM494 705v667h219l88 -338l96 338h217v-667h-174v370l-74 -325h-116l-80 325v-370h-176z" />
<glyph unicode="&#x2211;" horiz-adv-x="1773" />
<glyph unicode="&#x2212;" d="M109 444v261h907v-261h-907z" />
<glyph unicode="&#x221e;" horiz-adv-x="1138" d="M61 621q0 367 293 366q76 0 125 -26.5t90 -94.5q37 68 86.5 94.5t128.5 26.5q291 0 291 -364.5t-295 -364.5q-78 0 -125 26.5t-86 90.5q-39 -63 -88 -90t-123 -27q-297 1 -297 363zM322 621q0 -96 55 -97q8 0 14 1t13.5 6.5t11.5 9.5t10 15t10 17.5l13.5 21.5t13.5 28 q-41 80 -57 90q-12 8 -29 8q-55 0 -55 -100zM676 623q4 -12 12 -27.5t12.5 -22t10.5 -17.5t11 -15l11 -10q6 -5 12.5 -6t14.5 -1q55 0 55 97q0 100 -55 100q-25 0 -39 -17.5t-37 -62.5q-4 -12 -8 -18z" />
<glyph unicode="&#x2248;" d="M123 436l37 32q23 19 94.5 50t138.5 31q55 0 191.5 -46t185.5 -46q37 0 91 20.5t91 42.5l37 19l17 -267q-10 -12 -32 -31.5t-87.5 -50t-128.5 -30.5q-59 0 -201.5 47t-179.5 47q-102 0 -232 -86zM123 905l37 32q23 19 94.5 50t138.5 31q55 0 191.5 -47t185.5 -47 q37 0 91 21.5t91 43.5l37 19l17 -267q-10 -12 -32 -31.5t-87.5 -50t-128.5 -30.5q-59 0 -201.5 47t-179.5 47q-102 0 -232 -86z" />
<glyph unicode="&#x2260;" d="M45 248v260h324l90 201h-414v260h526l138 311l231 -92l-98 -219h215v-260h-328l-90 -201h418v-260h-531l-135 -305l-229 92l94 213h-211z" />
<glyph unicode="&#x2264;" d="M135 0v281h844v-281h-844zM135 553v385l844 217v-299l-563 -106l563 -113v-299z" />
<glyph unicode="&#x2265;" d="M150 0v281h866v-281h-866zM150 338v299l585 113l-585 106v299l866 -217v-385z" />
<glyph unicode="&#xe000;" horiz-adv-x="1065" d="M0 1065h1065v-1065h-1065v1065z" />
<glyph horiz-adv-x="499" />
<glyph horiz-adv-x="1144" d="M215 0v1554h74v-555q178 84 366 84q211 0 287 -119.5t76 -408.5q0 -311 -100.5 -442t-385.5 -131zM289 61q168 -12 241 -12q131 0 214 28.5t125 97.5t56.5 154t14.5 222q0 254 -56.5 359.5t-228.5 105.5q-84 0 -176 -21.5t-141 -42.5l-49 -22v-869z" />
<glyph horiz-adv-x="1335" d="M219 0v1491h512q217 0 323.5 -87t106.5 -276q0 -283 -207 -360q264 -72 265 -350q0 -229 -115 -323.5t-334 -94.5h-551zM297 72h473q178 0 273.5 77.5t95.5 268.5q0 309 -385 309h-457v-655zM297 797h457q170 0 248.5 83t78.5 248q0 154 -85 222.5t-265 68.5h-434v-622z " />
<glyph horiz-adv-x="1021" d="M74 1065h80l311 -997h90l313 997h80l-334 -1065h-208z" />
<glyph horiz-adv-x="970" d="M82 0l358 532l-358 533h84l319 -475l320 475h86l-361 -533l361 -532h-88l-318 475l-317 -475h-86z" />
<glyph d="M98 717q0 385 135.5 547.5t389.5 162.5l340 -41l-9 -69q-154 37 -331 37q-217 0 -331 -140.5t-114 -463.5q0 4 60.5 32.5t162 59t185.5 30.5q444 0 444 -430q0 -461 -455 -460q-246 0 -361.5 185t-115.5 550zM176 676q4 -311 98.5 -467t300.5 -156q203 0 289 96.5 t86 292.5q0 174 -83 266.5t-285 92.5q-188 -6 -402 -123z" />
<glyph d="M100 965q0 219 117 340.5t348 121.5q240 0 352.5 -184t112.5 -553q0 -385 -127 -546.5t-379 -161.5q-80 0 -171 11t-144 21l-51 11l12 69q174 -41 354 -41q215 0 321.5 143.5t106.5 473.5q0 -6 -59 -35t-161.5 -59.5t-186.5 -30.5q-225 0 -335 112.5t-110 307.5zM180 965 q0 -158 90 -252.5t279 -94.5q188 6 401 123l4 2q-10 610 -389 611q-385 0 -385 -389z" />
<glyph horiz-adv-x="1390" d="M219 0v1491h610q125 0 216.5 -75t135.5 -193.5t63.5 -232t19.5 -224.5q0 -82 -8.5 -165t-35 -197.5t-69.5 -199.5t-127 -144.5t-195 -59.5h-610zM297 72h532q92 0 163 60.5t106 139t55.5 187t24.5 175t4 132.5q0 74 -14.5 168t-49.5 212t-109.5 195.5t-179.5 77.5h-532 v-1347z" />
<glyph d="M219 0v1491h78v-1419h725v-72h-803z" />
<glyph horiz-adv-x="0" />
<glyph d="M61 1212q0 150 54.5 216.5t171 66.5t172 -66.5t55.5 -218.5q0 -295 -227 -295q-115 0 -170.5 71.5t-55.5 225.5zM137 1212q0 -115 34 -172t116 -57q86 0 118.5 56.5t32.5 170.5q0 113 -32.5 165t-118.5 52q-82 0 -116 -52t-34 -163zM395 12l307 1481l78 -14l-307 -1481z M659 297q0 147 54.5 215t173.5 68q115 0 170 -68t55 -217q0 -295 -225 -295q-117 0 -172.5 71.5t-55.5 225.5zM735 297q0 -117 34 -173t118 -56t116.5 55t32.5 172q0 113 -32.5 165t-116.5 52t-118 -52t-34 -163z" />
<glyph d="M289 975l235 172l-233 170l43 57l235 -172l88 275l70 -23l-90 -276h287v-72h-291l90 -275l-70 -22l-88 276l-235 -167z" />
<glyph horiz-adv-x="552" d="M10 641q0 190 52.5 429t103.5 382l51 145h74q-23 -61 -55.5 -164.5t-89 -358.5t-56.5 -433q0 -356 184 -862l17 -45h-74q-23 53 -57.5 144t-92 332t-57.5 431z" />
<glyph horiz-adv-x="552" d="M-8 -256q23 61 56.5 164.5t90 358.5t56.5 433q0 356 -187 863l-16 45h74q25 -53 58.5 -144.5t90.5 -332t57 -430t-51 -428t-102 -384.5l-53 -145h-74z" />
<glyph horiz-adv-x="606" d="M0 627v67q121 31 171 90.5t50 165.5q0 27 -7 128.5t-7 144.5q0 193 86 280.5t289 95.5l4 -67q-174 -8 -239.5 -82t-65.5 -227q0 -37 8 -130.5t8 -123.5q0 -137 -47 -203t-166 -104q119 -37 166 -103.5t47 -198.5l-16 -247q0 -154 65.5 -227.5t239.5 -82.5l-4 -67 q-203 8 -289 97t-86 280q0 45 7 142t7 120q0 104 -50 160.5t-171 91.5z" />
<glyph horiz-adv-x="2009" d="M127 739q0 391 124 580.5t447 189.5q229 0 314 -18h870v-76h-795v-610h668v-76h-668v-653h795v-76h-866v-2q-74 -16 -318 -16q-170 0 -282.5 46t-176 147t-88 234t-24.5 330zM209 739q0 -182 19.5 -298.5t71.5 -209t149.5 -135.5t248.5 -43q225 0 314 19v1341 q-84 25 -314 25q-150 0 -247 -45t-149 -139.5t-72.5 -215.5t-20.5 -299zM1012 1413l2 -708v708h-2z" />
<glyph horiz-adv-x="1773" d="M487 451v69h396v496h-396v67h396v408h73v-408h394v-67h-394v-496h394v-69h-394v-451h-73v451h-396z" />
<glyph horiz-adv-x="821" d="M10 1452q240 57 355 57q211 0 318.5 -77.5t107.5 -257.5q0 -96 -44.5 -180.5t-105.5 -145t-123.5 -115.5t-106.5 -118.5t-44 -129.5v-79h-76v86q0 74 44 142t106 126l125 118q62 60 105.5 136t43.5 160q0 147 -86 206.5t-264 59.5l-345 -60zM287 2v170h86v-170h-86z" />
<glyph horiz-adv-x="299" d="M53 0v170h86v-170h-86zM53 733v170h86v-170h-86z" />
<glyph horiz-adv-x="360" d="M-12 -262l86 446h90l-111 -446h-65zM68 733v170h86v-170h-86z" />
<glyph horiz-adv-x="638" d="M102 1595h390v-67h-314v-1723h314v-67h-388z" />
<glyph horiz-adv-x="638" d="M109 -195h313v1723h-313v67h389l-2 -1857h-387v67z" />
<glyph horiz-adv-x="212" d="M-43 1470h254l-10 -491h-240z" />
<glyph horiz-adv-x="755" d="M70 1470h254l-11 -491h-239zM408 1470h251l-10 -491h-237z" />
<glyph horiz-adv-x="1490" d="M82 442q0 190 81 282.5t265 145.5q-68 76 -88.5 139.5t-20.5 161.5q0 139 83 223.5t243 84.5q166 0 246 -83t80 -227q0 -154 -81 -239.5t-269 -147.5l397 -395q43 125 65 311h76q-31 -229 -84 -366l299 -291l-51 -55l-279 276q-141 -281 -473 -280q-268 0 -378.5 116.5 t-110.5 343.5zM156 444q0 -197 98 -295t321 -98q291 0 414 264l-506 500q-182 -49 -254.5 -128t-72.5 -243zM393 1171q0 -166 96 -262l78 -75q184 63 257 132.5t73 204.5q0 238 -252 238t-252 -238z" />
<glyph horiz-adv-x="1212" d="M244 0v72h194v725h-147v67h147v203q0 221 70 301t223 80l256 -25v-69q-186 27 -256 26q-115 0 -166 -65.5t-51 -247.5v-203h387v-67h-387v-725h371l174 34l14 -67l-172 -37z" />
<glyph horiz-adv-x="1261" d="M145 522v72h131q-2 35 -2 111q0 90 2 133h-131v71h136q23 272 137 402.5t387 130.5q203 0 373 -41l-7 -74q-195 43 -366 43q-236 0 -331 -110.5t-111 -350.5l661 -2v-69h-666q-2 -43 -2 -133q0 -76 2 -111l666 -2v-70h-664q16 -246 111.5 -357.5t333.5 -111.5l366 43 l7 -73q-205 -41 -373 -41q-272 0 -388 130t-136 410h-136z" />
<glyph horiz-adv-x="1773" d="M524 1462l74 31l641 -1462l-74 -31z" />
<glyph horiz-adv-x="1105" d="M57 -72h912v-73h-912v73z" />
<glyph horiz-adv-x="1308" d="M219 0v1491h543q227 0 334.5 -106.5t107.5 -342.5q0 -240 -100 -367.5t-342 -127.5h-465v-547h-78zM297 621h465q360 0 360 421q0 195 -88 286t-272 91h-465v-798z" />
<glyph d="M6 711v77h717v-77h-717zM322 297v170h86v-170h-86zM322 1028v172h86v-172h-86z" />
<glyph horiz-adv-x="872" d="M-104 498v73h493v494h78v-494h498v-73h-498v-498h-78v498h-493z" />
<glyph horiz-adv-x="935" d="M127 563v72h682v-72h-682z" />
<glyph d="M135 627v75l737 488v-82l-669 -438l669 -463v-88q-665 455 -737 508z" />
<glyph d="M2 731v72h1075v-72h-1075zM4 371v71h1075v-71h-1075z" />
<glyph d="M135 119v88l670 463l-670 438v82l737 -488v-75z" />
<glyph d="M98 25l590 1470l70 -29l-590 -1468z" />
<glyph horiz-adv-x="1865" d="M127 555q0 295 99.5 411.5t338.5 116.5q309 0 391 -254q94 254 387 254q203 0 304.5 -120.5t101.5 -389.5v-71h-756q0 -229 72 -341t252 -112l387 19l4 -68q-238 -18 -393 -18q-281 2 -361 227q-39 -119 -130 -173t-259 -54q-260 0 -349 122.5t-89 450.5zM207 555 q0 -147 11 -234.5t50 -154t108.5 -92t188.5 -25.5q115 0 185.5 28.5t106.5 98.5t46 153t10 222q0 252 -84 358.5t-264 106.5q-207 0 -282.5 -97.5t-75.5 -363.5zM993 571h676q0 240 -78 342.5t-248 102.5q-350 -1 -350 -445z" />
<glyph horiz-adv-x="1910" d="M74 0l534 1491h1178v-72h-795v-614h666v-72h-666v-661h795v-72h-873v459h-587l-166 -459h-86zM352 530h561v889h-243z" />
<glyph horiz-adv-x="1396" d="M98 739q0 391 123 580.5t449 189.5q174 0 297 -59l110 238l72 -31l-119 -248q117 -88 163 -252t46 -418q0 -408 -120 -582.5t-449 -174.5q-170 0 -287 49l-123 -267l-70 27l127 275q-121 82 -170 245.5t-49 427.5zM178 739q0 -240 38 -384t136 -218l582 1243 q-102 57 -264 58q-150 0 -248 -45t-150.5 -139.5t-73 -215.5t-20.5 -299zM416 98q100 -45 252.5 -45t250 39t149.5 130t71.5 210t19.5 307q0 446 -162 596z" />
<glyph horiz-adv-x="1763" d="M117 291q0 150 66.5 216t228.5 91l403 43v111q0 260 -235 260l-402 -19l-4 70q236 20 406 20q244 0 294 -202q104 203 367 202q203 0 304.5 -120.5t101.5 -389.5v-71h-756q0 -229 71.5 -341t251.5 -112l388 19l4 -68q-238 -18 -394 -18q-211 2 -305 122l-80 -34 q-199 -88 -440 -88q-270 0 -270 309zM197 291q0 -117 51 -179.5t141 -62.5t207 25.5t180.5 47t97.5 36.5q-63 125 -63 374v39l-391 -39q-117 -10 -170 -67t-53 -174zM891 571h676q0 240 -77 342.5t-249 102.5q-350 -1 -350 -445z" />
<glyph d="M76 518q0 299 132 432t352 133t352 -133t132 -432t-129 -417.5t-355 -118.5t-355 118.5t-129 417.5zM342 518q0 -168 52 -230.5t166 -62.5t166 62.5t52 230.5q0 186 -52 254t-166 68t-166 -68t-52 -254z" />
<glyph d="M158 807l452 258h226v-1065h-267v756l-313 -164z" />
<glyph d="M152 0v231l270 195q166 117 224.5 177.5t58.5 122.5t-50.5 82.5t-177.5 20.5q-33 0 -109 -8l-139 -14q-61 -6 -61 -8l-16 243q256 41 423 41q418 0 418 -317q0 -129 -62.5 -209t-217.5 -188l-176 -123h469v-246h-854z" />
<glyph d="M180 29l33 241q233 -23 408 -22q90 0 123.5 21.5t33.5 70.5q0 80 -168 80h-280v233h278q137 0 137 92q0 86 -139 86q-82 0 -178 -7l-152 -11l-53 -6l-24 240q244 39 405 38q201 0 304.5 -60t103.5 -204q0 -174 -138 -252q170 -76 170 -256q0 -166 -117.5 -248.5 t-305.5 -82.5q-80 0 -189.5 11t-179.5 23z" />
<glyph d="M137 174v193l269 698h282l-260 -635h260v244h266v-244h88v-256h-88v-174h-266v174h-551z" />
<glyph d="M125 49l33 242q268 -49 426 -49q168 0 168 88q0 106 -174 106l-209 -45l-211 41l47 641h799v-280h-558l-24 -144q94 39 194 39q207 0 319 -87t112 -253q0 -172 -117 -269t-336 -97q-188 -1 -469 67z" />
<glyph d="M123 541q0 283 135 412.5t350 129.5l387 -30l-20 -222q-229 18 -367 19q-219 0 -219 -217q0 2 40 15.5t99.5 27.5t98.5 14q428 0 428 -356q0 -166 -137.5 -260t-342.5 -94q-225 0 -338.5 133t-113.5 428zM389 416q6 -203 207 -203q193 0 192 121q0 106 -188 106 q-37 0 -89 -6t-87 -12z" />
<glyph d="M190 831v234h781v-283l-420 -800l-227 61l393 739v49h-527z" />
<glyph d="M102 289q0 102 43 163.5t119 102.5q-137 86 -137 229q0 154 113.5 226.5t311.5 72.5t310.5 -72.5t112.5 -226.5q0 -143 -135 -229q55 -35 81.5 -56.5t53 -75.5t26.5 -134q0 -154 -125.5 -231.5t-323.5 -77.5t-324 77.5t-126 231.5zM369 315q0 -106 183 -106t183 106 q0 49 -28.5 77t-90.5 48h-129q-118 -43 -118 -125zM393 760q0 -80 94 -117h129q92 33 93 119q0 39 -38 65.5t-119 26.5t-120 -27.5t-39 -66.5z" />
<glyph d="M113 727q0 170 117.5 264t310.5 94q449 0 448 -550q0 -289 -129 -421t-344 -132q-96 0 -185 11t-132 23l-43 13l24 219q164 -29 336 -29q94 0 147.5 57.5t53.5 157.5l-23 -8q-20 -8 -73.5 -19.5t-116.5 -11.5q-391 0 -391 332zM379 731q0 -47 40 -75.5t109 -28.5 q51 2 96.5 11t61.5 17l19 7q-4 190 -175 190q-80 0 -115.5 -29t-35.5 -92z" />
<glyph d="M516 -125v1616h74v-1616h-74z" />
<glyph horiz-adv-x="929" d="M25 526q0 416 370 451v283h76v-279l246 -23l-4 -73q-160 18 -242 20v-741l246 16l6 -74q-170 -18 -252 -18v-270h-76v270q-195 10 -282.5 103t-87.5 335zM111 526q0 -203 61 -277.5t223 -82.5v735q-141 -14 -212.5 -104.5t-71.5 -270.5z" />
<glyph d="M129 725v72h526l154 346l76 -29l-142 -317h291v-72h-323l-140 -322h465v-73h-497l-154 -350l-74 28l140 322h-320v73h352l142 322h-496z" />
<glyph horiz-adv-x="1148" d="M53 1405h88l437 -657l430 657h90l-408 -627h359v-73h-406l-27 -43v-201h435v-74h-435v-387h-77v387h-437v74h437v201l-27 43h-412v73h365z" />
<glyph d="M193 -532v1597h73v-549q0 -283 51.5 -375t223.5 -92q180 0 346 105l4 2v909h74v-1065h-74v86q-20 -12 -52 -29.5t-124 -46t-174 -28.5q-201 0 -275 108v-622h-73z" />
<glyph d="M150 -516l4 72q131 -6 190 -7q98 0 147.5 71t49.5 239v891h-148v67h148v238q0 379 270 379l199 -7l-4 -67q-131 4 -195 4q-195 0 -195 -311v-236h345v-67h-345v-891q0 -207 -67.5 -294t-204.5 -87z" />
<glyph horiz-adv-x="360" d="M-12 -262l88 446h86l-109 -446h-65z" />
<glyph horiz-adv-x="526" d="M209 0v170h86v-170h-86z" />
<glyph horiz-adv-x="360" d="M8 1122l86 426h80l-102 -426h-64z" />
<glyph horiz-adv-x="1773" d="M250 1116q0 164 113.5 269.5t281.5 105.5h741v-70h-206v-1421h-76v1421h-367v-1421h-78v745h-14q-168 0 -281.5 103.5t-113.5 267.5z" />
<glyph horiz-adv-x="606" d="M-2 -205q174 8 239.5 82t65.5 227q0 37 -8 130.5t-8 123.5q0 137 47 203t166 103q-119 39 -166 105.5t-47 197.5l16 247q0 154 -65.5 226.5t-239.5 83.5l4 67q203 -8 289 -97t86 -280q0 -45 -7.5 -142t-7.5 -120q0 -104 50.5 -160.5t171.5 -91.5v-67 q-121 -31 -171.5 -90.5t-50.5 -165.5q0 -27 7.5 -128.5t7.5 -144.5q0 -193 -86 -280.5t-289 -95.5z" />
<glyph horiz-adv-x="360" d="M-47 1122l102 426h64l-84 -426h-82z" />
<glyph horiz-adv-x="0" d="M184 358q0 57 11.5 105.5t23.5 78t41 62.5t45.5 48.5t57 46l55.5 42.5l-43 34q-33 26 -42 34l-34 31q-25 23 -32 36t-23.5 37.5t-20.5 46t-9 52t-5 65.5q0 354 500 355q510 0 510 -357q0 -41 -3.5 -72.5t-18.5 -61.5t-21.5 -44t-34.5 -44l-35 -36q-6 -6 -48 -39t-48 -37 q14 -12 64 -50t67.5 -55.5t47.5 -57t40 -87t10 -110.5q0 -223 -138 -314.5t-392 -91.5q-525 0 -525 383zM500 434q0 -158 209 -158q215 0 215 158q0 106 -117 162h-186q-70 -31 -95.5 -70t-25.5 -92zM524 1001q0 -14 1 -25t6.5 -21.5t8.5 -15.5t14 -15.5t16 -13.5l22.5 -14 t28.5 -19h186q8 8 23.5 17t20.5 13t15.5 11.5t14.5 13.5t10 13t7 14.5t3 18.5t2 23q0 68 -41 97.5t-149.5 29.5t-148.5 -30.5t-40 -96.5z" />
<glyph horiz-adv-x="761" d="M45 805v258h125v276l287 23v-299h260v-258h-260v-402q0 -66 3 -92t22.5 -44.5t62.5 -18.5l162 4l14 -246q-143 -31 -219 -31q-190 0 -261 86t-71 318v426h-125z" />
<glyph horiz-adv-x="935" d="M127 479v238h682v-238h-682z" />
<glyph horiz-adv-x="526" d="M96 0v303h281v-303h-281z" />
<glyph d="M2 225v283h1077v-283h-1077zM2 668v280h1075v-280h-1075z" />
<glyph horiz-adv-x="1105" d="M57 33h912v-283h-912v283z" />
<glyph horiz-adv-x="720" d="M51 567v195q221 55 221 192q0 27 -7 128.5t-7 144.5q0 195 92 279.5t326 92.5v-237q-98 -10 -125 -41t-27 -115q0 -37 7.5 -119.5t7.5 -113.5q0 -139 -47.5 -202.5t-165.5 -102.5q121 -41 167 -103.5t46 -199.5q0 -31 -7.5 -111t-7.5 -115q0 -88 28 -121.5t124 -42.5 v-239q-233 8 -325.5 98t-92.5 283q0 45 7 142t7 120q0 125 -221 188z" />
<glyph horiz-adv-x="606" d="M-227 -35q98 10 124.5 41t26.5 115q0 37 -8 120t-8 113q0 139 47 203t166 102q-121 41 -167 102.5t-46 201.5q0 31 8 110.5t8 114.5q0 88 -27.5 121.5t-123.5 42.5v239q231 -8 324 -98t93 -283q0 -45 -8 -142t-8 -120q0 -127 221 -188v-195q-221 -55 -221 -192 q0 -29 8 -129.5t8 -143.5q0 -195 -93 -279.5t-324 -92.5v237z" />
<glyph horiz-adv-x="872" d="M-104 406v258h403v401h258v-401h408v-258h-408v-406h-258v406h-403z" />
<glyph horiz-adv-x="563" d="M10 115q0 199 67.5 279.5t208 80.5t208 -81t67.5 -279q0 -197 -66.5 -274t-209 -77t-209 77t-66.5 274zM246 114.5q0 -67.5 5 -100t12 -41t22 -8.5q25 0 33 25.5t8 124.5q0 100 -8.5 128.5t-32.5 28.5q-14 0 -22.5 -9t-12.5 -45t-4 -103.5z" />
<glyph horiz-adv-x="563" d="M35 291l225 160h205v-664h-227v416l-99 -68z" />
<glyph horiz-adv-x="563" d="M31 -20l153 124q98 78 99 121q0 33 -78 33l-162 -12l-8 211q156 18 250 18q131 0 184 -49t53 -164q0 -70 -27.5 -118t-91.5 -95l-81 -59h200v-203h-491v193z" />
<glyph horiz-adv-x="563" d="M43 -219l12 199q129 -14 201 -15q61 0 61 35q0 31 -55 31h-141v180h137q43 0 43 30.5t-57 30.5l-181 -10l-12 195q145 18 230 18q258 0 258 -190q0 -113 -62 -148q74 -33 74 -155q0 -109 -65.5 -163.5t-184.5 -54.5z" />
<glyph horiz-adv-x="563" d="M20 49l84 402h252l-110 -388h57l29 193h194v-193h23v-202h-23v-74h-223v74h-283v188z" />
<glyph horiz-adv-x="563" d="M39 -199l16 183q119 -20 199 -21q53 0 53 33q0 35 -31 35l-55 -11l-166 25l23 406h442v-191h-264l-6 -53q59 12 92 12q199 0 199 -211q0 -236 -252 -235q-47 0 -110.5 7t-102.5 15z" />
<glyph horiz-adv-x="563" d="M18 94q0 188 66 284.5t227 96.5q33 0 89.5 -6t93.5 -12l38 -8l-12 -185q-141 12 -201 12q-70 0 -69 -55l12 2q12 2 33.5 5t34.5 3q115 0 168 -55t53 -168q0 -115 -70.5 -179.5t-181.5 -64.5q-281 0 -281 330zM250 33q0 -74 37 -74t37 45t-35 45q-10 0 -20.5 -4t-14.5 -8z " />
<glyph horiz-adv-x="563" d="M45 227v224h483v-215l-202 -469l-258 38l194 396v26h-217z" />
<glyph horiz-adv-x="563" d="M10 -12q0 94 68 147q-57 41 -58 150q0 190 263 190q264 0 264 -192q0 -94 -58 -152q6 -4 18.5 -13t30 -46t17.5 -84q0 -123 -67.5 -173.5t-205 -50.5t-205 50.5t-67.5 173.5zM244 -8q0 -47 40 -47t40 47q0 27 -25 53h-31q-24 -26 -24 -53zM246 254q0 -27 22 -53h31 q23 27 23 53q0 41 -38 41t-38 -41z" />
<glyph horiz-adv-x="563" d="M18 227q0 117 69 182.5t185 65.5q279 0 279 -352q0 -184 -63.5 -271.5t-215.5 -87.5q-45 0 -102 7.5t-94 15.5l-33 6l12 187q104 -14 187 -15q70 0 69 49l-10 -2q-12 -2 -30.5 -4t-34.5 -2q-218 0 -218 221zM248 227q0 -47 33 -47l41 15q0 82 -41 81q-33 0 -33 -49z" />
<glyph horiz-adv-x="1583" d="M115 0v354h307v-354h-307zM657 0v354h308v-354h-308zM1202 0v354h305v-354h-305z" />
<glyph horiz-adv-x="821" d="M10 -37q0 109 39 194t94.5 134t111.5 88t94 77t38 79v81h307v-88q0 -82 -38 -143t-91 -101l-107 -78q-54 -38 -93 -89t-39 -115q0 -88 30.5 -123t145.5 -35q49 0 128 9.5t134 19.5l55 10l35 -280q-250 -61 -365 -62q-256 0 -367.5 95.5t-111.5 326.5zM387 709v354h307 v-354h-307z" />
<glyph horiz-adv-x="821" d="M10 393q0 109 39 194t94.5 134t111.5 88t94 77t38 79v82h307v-89q0 -82 -38 -143t-91 -101l-107 -78q-54 -38 -93 -89t-39 -115q0 -88 30.5 -123t145.5 -35q49 0 128 10.5t134 18.5l55 10l35 -280q-250 -61 -365 -62q-256 0 -367.5 95.5t-111.5 326.5zM387 1139v354h307 v-354h-307z" />
<glyph horiz-adv-x="821" d="M10 393q0 109 39 194t94.5 134t111.5 88t94 77t38 79v82h307v-89q0 -82 -38 -143t-91 -101l-107 -78q-54 -38 -93 -89t-39 -115q0 -88 30.5 -123t145.5 -35q49 0 128 10.5t134 18.5l55 10l35 -280q-250 -61 -365 -62q-256 0 -367.5 95.5t-111.5 326.5zM387 1139v354h307 v-354h-307z" />
<glyph horiz-adv-x="1064" d="M0 518v260h1065v-260h-1065z" />
<glyph horiz-adv-x="2129" d="M0 518v260h2130v-260h-2130z" />
<glyph horiz-adv-x="526" d="M96 526v355h307v-355h-307z" />
<glyph d="M422 -428l10 938h295l10 -938h-315zM426 709v354h307v-354h-307z" />
<glyph horiz-adv-x="552" d="M10 705.5q0 189.5 52.5 428t103.5 382.5l51 145h311q-25 -61 -57.5 -164.5t-88.5 -357.5t-56 -434q0 -354 186 -863l16 -45h-311q-23 53 -57.5 145.5t-92 333t-57.5 430z" />
<glyph horiz-adv-x="552" d="M-8 -193l56 166q34 102 90.5 357.5t56.5 433.5q0 356 -187 864l-16 43h311q23 -53 56.5 -144t92 -332t58.5 -430.5t-52 -428t-104 -383.5l-51 -146h-311z" />
<glyph horiz-adv-x="638" d="M59 1659h539v-281h-244v-1294h244v-283h-537z" />
<glyph horiz-adv-x="638" d="M47 84h244v1294h-244v281h539l-2 -1858h-537v283z" />
<glyph horiz-adv-x="720" d="M51 610v240q117 31 159 73t42 119q0 27 -8 127.5t-8 143.5q0 199 107.5 280.5t352.5 92.5v-283q-98 -8 -124.5 -28.5t-26.5 -84.5q0 -35 8 -138t8 -134q0 -125 -47 -186.5t-166 -98.5q117 -39 165 -107.5t48 -195.5q0 -29 -8 -121t-8 -129q0 -66 27.5 -89t123.5 -32v-280 q-240 8 -350 93t-110 273q0 45 8 139.5t8 118.5q0 78 -43 127t-158 80z" />
<glyph horiz-adv-x="720" d="M25 1395v280q242 -8 351 -93t109 -271q0 -45 -7 -140.5t-7 -117.5q0 -80 42 -129.5t159 -79.5v-240q-119 -29 -160 -72t-41 -118q0 -29 7 -129.5t7 -141.5q0 -201 -107.5 -282.5t-352.5 -89.5v280q98 8 124.5 28.5t26.5 84.5q0 37 -7 140.5t-7 131.5q0 127 47 187.5 t166 99.5q-117 37 -165 105.5t-48 195.5q0 31 7 122t7 128q0 66 -27.5 89.5t-123.5 31.5z" />
<glyph horiz-adv-x="569" d="M12 1763l94 271l547 -195l-84 -242z" />
<glyph horiz-adv-x="569" d="M2 1763l94 271l547 -195l-86 -242z" />
<glyph horiz-adv-x="569" d="M-10 1862l547 196l94 -270l-557 -168z" />
<glyph horiz-adv-x="569" d="M-2 1862l547 196l94 -270l-555 -168z" />
<glyph horiz-adv-x="1034" d="M51 1671l279 318h262l278 -318h-319l-86 92l-88 -92h-326z" />
<glyph horiz-adv-x="569" d="M-76 1671l279 318h262l278 -318h-319l-88 92l-86 -92h-326z" />
<glyph horiz-adv-x="569" d="M-98 1980h325l88 -98l88 98h320l-281 -315h-258z" />
<glyph horiz-adv-x="569" d="M-104 1980h325l88 -98l86 98h320l-279 -315h-258z" />
<glyph horiz-adv-x="569" d="M-86 1874l36 37q22 23 82 61.5t111 38.5q74 0 204 -46t151 -46q55 0 176 84l61 -217q-12 -16 -34.5 -39t-83 -59.5t-109.5 -36.5q-61 0 -196.5 47t-164.5 47q-27 0 -68.5 -21.5t-72.5 -42.5l-29 -22z" />
<glyph horiz-adv-x="569" d="M-86 1874l36 37q22 23 82 61.5t111 38.5q74 0 204 -46t151 -46q55 0 176 84l61 -217q-12 -16 -34.5 -39t-83 -59.5t-109.5 -36.5q-61 0 -196.5 47t-164.5 47q-27 0 -68.5 -21.5t-72.5 -42.5l-29 -22z" />
<glyph horiz-adv-x="569" d="M-74 1692v280h273v-280h-273zM397 1692v280h275v-280h-275z" />
<glyph horiz-adv-x="569" d="M-74 1692v280h273v-280h-273zM397 1692v280h275v-280h-275z" />
<glyph horiz-adv-x="569" d="M-53 1688v245h739v-245h-739z" />
<glyph horiz-adv-x="569" d="M-53 1688v245h739v-245h-739z" />
<glyph horiz-adv-x="569" d="M-63 1980h294q18 -82 101 -82q88 0 102 82h297q-18 -145 -116.5 -233t-281.5 -88t-281.5 88t-114.5 233z" />
<glyph horiz-adv-x="569" d="M-63 1980h294q18 -82 101 -82q88 0 102 82h297q-18 -145 -116.5 -233t-281.5 -88t-281.5 88t-114.5 233z" />
<glyph horiz-adv-x="569" d="M-2 1535q0 126 91 197.5t228.5 71.5t228.5 -71.5t91 -197.5t-91 -196.5t-228.5 -70.5t-228.5 70.5t-91 196.5zM217 1535q0 -32 26.5 -50.5t74 -18.5t74 18.5t26.5 50.5t-26.5 51.5t-74 19.5t-74 -19.5t-26.5 -51.5z" />
<glyph horiz-adv-x="569" d="M-23 1535q0 126 91.5 197.5t227.5 71.5t228 -71.5t92 -197.5t-92 -196.5t-228 -70.5t-227.5 70.5t-91.5 196.5zM197 1535q0 -32 26.5 -50.5t72.5 -18.5t72.5 18.5t26.5 50.5t-26.5 51.5t-72.5 19.5t-72.5 -19.5t-26.5 -51.5z" />
<glyph horiz-adv-x="569" d="M-70 1673l142 420l268 -94l-166 -408zM393 1671l144 420l268 -96l-166 -406z" />
<glyph horiz-adv-x="569" d="M-70 1673l142 420l268 -94l-166 -408zM393 1671l144 420l268 -96l-166 -406z" />
<glyph horiz-adv-x="569" d="M143 1655v287h285v-287h-285z" />
<glyph horiz-adv-x="569" d="M143 1655v287h285v-287h-285z" />
<glyph horiz-adv-x="563" d="M10 1133q0 199 67.5 279.5t208 80.5t208 -81t67.5 -279q0 -195 -66.5 -273t-209 -78t-209 78t-66.5 273zM246 1133.5q0 -68.5 5 -101.5t12 -41t22 -8q25 0 33 25.5t8 124.5q0 100 -8.5 128.5t-32.5 28.5q-14 0 -22.5 -9t-12.5 -44t-4 -103.5z" />
<glyph horiz-adv-x="563" d="M12 1311l226 159h204v-665h-225v416l-100 -68z" />
<glyph horiz-adv-x="563" d="M31 805v192l153 125q98 80 99 121q0 33 -78 33l-162 -12l-8 211q156 18 250 18q131 0 184 -49t53 -164q0 -70 -27.5 -118t-91.5 -95l-81 -59h200v-203h-491z" />
<glyph horiz-adv-x="563" d="M43 799l12 198q129 -14 201 -14q61 0 61 35q0 31 -55 31h-141v180h137q43 0 43 30.5t-57 30.5l-181 -10l-12 195q145 18 230 18q258 0 258 -190q0 -113 -62 -148q74 -33 74 -156q0 -109 -65.5 -163t-184.5 -54z" />
<glyph horiz-adv-x="563" d="M20 881v186l84 403h252l-110 -389h57l29 193h194v-193h23v-200h-23v-76h-223v76h-283z" />
<glyph horiz-adv-x="563" d="M39 819l16 182q119 -20 199 -20q53 0 53 33q0 35 -31 35l-55 -9l-166 23l23 407h442v-192h-264l-6 -53q59 12 92 12q199 0 199 -211q0 -236 -252 -235q-47 0 -110.5 7t-102.5 15z" />
<glyph horiz-adv-x="563" d="M18 1112q0 188 66 284.5t227 96.5q33 0 89.5 -6t93.5 -12l38 -7l-12 -186q-141 12 -201 12q-70 0 -69 -55l12 2q12 2 33.5 5t34.5 3q115 0 168 -55t53 -168q0 -115 -70.5 -179.5t-181.5 -64.5q-281 0 -281 330zM250 1051q0 -74 37 -74t37 45t-35 45q-10 0 -20.5 -4 t-14.5 -8z" />
<glyph horiz-adv-x="563" d="M45 1245v225h483v-215l-202 -471l-258 39l194 396v26h-217z" />
<glyph horiz-adv-x="563" d="M10 1006q0 94 68 147q-57 41 -58 150q0 190 263 190q264 0 264 -193q0 -94 -58 -149q6 -4 18.5 -14.5t30 -47t17.5 -83.5q0 -121 -67.5 -172.5t-205 -51.5t-205 51.5t-67.5 172.5zM244 1010q0 -47 40 -47t40 47q0 27 -25 53h-31q-24 -26 -24 -53zM246 1272q0 -27 22 -53 h31q23 27 23 53q0 41 -38 41t-38 -41z" />
<glyph horiz-adv-x="563" d="M18 1245q0 119 69 183.5t185 64.5q279 0 279 -352q0 -184 -63.5 -271.5t-215.5 -87.5q-45 0 -102 7.5t-94 15.5l-33 6l12 186q104 -14 187 -14q70 0 69 49l-10 -2q-12 -2 -30.5 -4t-34.5 -2q-218 0 -218 221zM248 1245q0 -45 33 -45l41 12q0 82 -41 82q-33 0 -33 -49z " />
</font>
</defs>
</svg>
